<svg width="32" height="32" viewBox="0 0 32 32" fill="none" xmlns="http://www.w3.org/2000/svg">
<path d="M0 4C0 1.79086 1.79086 0 4 0H28C30.2091 0 32 1.79086 32 4V28C32 30.2091 30.2091 32 28 32H4C1.79086 32 0 30.2091 0 28V4Z" fill="#343542"/>
<path d="M9.9 12.6C9.9 12.4 9.8 12.2 9.7 12.1L8.2 10.3V10H12.8L16.4 17.9L19.6 10H24V10.3L22.7 11.5C22.6 11.6 22.5 11.7 22.6 11.9V20.9C22.6 21 22.6 21.2 22.7 21.3L23.9 22.5V22.8H17.6V22.5L18.9 21.2C19 21.1 19 21 19 20.8V13.5L15.4 22.6H15L10.8 13.5V19.6C10.8 19.9 10.9 20.1 11 20.3L12.7 22.3V22.6H8V22.3L9.7 20.3C9.9 20.1 10 19.9 9.9 19.6V12.6Z" fill="white"/>
</svg>
