<svg width="100%" height="55" viewBox="0 0 163 32" fill="none" xmlns="http://www.w3.org/2000/svg">
<g clip-path="url(#clip0_757_13369)">
<path d="M39.3845 17.0259C39.3845 20.9596 41.8337 23.5655 45.5824 23.5655C48.8065 23.5655 51.2056 21.5861 51.5805 18.7047H48.5065C48.1816 20.0577 47.1069 20.8093 45.5824 20.8093C43.6332 20.8093 42.4335 19.356 42.4335 17.0259C42.4335 14.6957 43.7331 13.2174 45.6824 13.2174C47.1319 13.2174 48.1566 13.944 48.5065 15.3472H51.5555C51.2306 12.3655 48.9314 10.4863 45.5575 10.4863C41.9087 10.4863 39.3845 13.1924 39.3845 17.0259Z" fill="#BAC3DA"/>
<path d="M53.125 17.0258C53.125 20.8843 55.899 23.5403 59.7228 23.5403C63.5465 23.5403 66.3207 20.8843 66.3207 17.0258C66.3207 13.1672 63.5465 10.5112 59.7228 10.5112C55.899 10.5112 53.125 13.1672 53.125 17.0258ZM56.174 17.0258C56.174 14.7707 57.6235 13.2423 59.7228 13.2423C61.8221 13.2423 63.2717 14.7707 63.2717 17.0258C63.2717 19.2807 61.8221 20.8092 59.7228 20.8092C57.6235 20.8092 56.174 19.2807 56.174 17.0258Z" fill="#BAC3DA"/>
<path d="M73.9617 23.9067C75.8361 23.9067 77.4355 23.0799 78.1852 21.6516L78.3851 23.581H81.1843V4.93945H78.1603V12.7819C77.3856 11.5542 75.8611 10.8276 74.1367 10.8276C70.4128 10.8276 68.1636 13.5837 68.1636 17.4423C68.1636 21.2759 70.3878 23.9067 73.9617 23.9067ZM74.6364 21.1004C72.5121 21.1004 71.2126 19.547 71.2126 17.342C71.2126 15.1372 72.5121 13.5587 74.6364 13.5587C76.7607 13.5587 78.1353 15.1121 78.1353 17.342C78.1353 19.5721 76.7607 21.1004 74.6364 21.1004Z" fill="#BAC3DA"/>
<path d="M89.7341 23.5655C92.958 23.5655 95.2073 21.9369 95.7321 19.2309H92.908C92.5582 20.4084 91.4584 21.0599 89.784 21.0599C87.7597 21.0599 86.6101 19.9574 86.3852 17.7776L95.682 17.7526V16.8255C95.682 12.9668 93.3329 10.4863 89.6341 10.4863C86.0103 10.4863 83.4861 13.1673 83.4861 17.0509C83.4861 20.8845 86.0603 23.5655 89.7341 23.5655ZM89.6591 12.9919C91.4834 12.9919 92.6581 14.1194 92.6581 15.8232H86.4602C86.76 13.9691 87.8596 12.9919 89.6591 12.9919Z" fill="#BAC3DA"/>
<path d="M111.768 19.7568V16.9507H109.543V4.92383H105.52L97.2476 16.9507V19.7568H106.519V23.2396H109.543V19.7568H111.768ZM100.646 16.9507L106.519 8.38153V16.9507H100.646Z" fill="#BAC3DA"/>
<path d="M122.027 10.8119C121.527 10.6866 121.102 10.6365 120.677 10.6365C119.028 10.6365 117.853 11.4633 117.328 12.691L117.153 10.887H114.279V23.2395H117.328V17.2262C117.328 14.8208 118.703 13.6432 120.902 13.6432H122.027V10.8119Z" fill="#BAC3DA"/>
<path d="M129.199 23.5655C132.423 23.5655 134.672 21.9369 135.197 19.2309H132.372C132.023 20.4084 130.923 21.0599 129.249 21.0599C127.224 21.0599 126.075 19.9574 125.85 17.7776L135.147 17.7526V16.8255C135.147 12.9668 132.797 10.4863 129.099 10.4863C125.475 10.4863 122.951 13.1673 122.951 17.0509C122.951 20.8845 125.525 23.5655 129.199 23.5655ZM129.124 12.9919C130.948 12.9919 132.123 14.1194 132.123 15.8232H125.925C126.225 13.9691 127.324 12.9919 129.124 12.9919Z" fill="#BAC3DA"/>
<path d="M140.636 23.2397V16.5749C140.636 14.5704 141.785 13.2675 143.66 13.2675C145.234 13.2675 146.259 14.2698 146.259 16.3494V23.2397H149.307V15.6228C149.307 12.4156 147.709 10.4863 144.61 10.4863C142.935 10.4863 141.435 11.2129 140.661 12.4657L140.411 10.8622H137.587V23.2397H140.636Z" fill="#BAC3DA"/>
<path d="M155.977 23.5655C157.902 23.5655 159.576 22.6885 160.101 21.4107L160.327 23.2397H163V15.7229C163 12.2903 160.95 10.4863 157.627 10.4863C154.278 10.4863 152.079 12.2402 152.079 14.9211H154.678C154.678 13.6183 155.678 12.8666 157.476 12.8666C159.026 12.8666 160.026 13.5431 160.026 15.2219V15.4975L156.328 15.7731C153.403 15.9987 151.754 17.4268 151.754 19.7069C151.754 22.037 153.354 23.5655 155.977 23.5655ZM156.977 21.2604C155.602 21.2604 154.853 20.7092 154.853 19.5816C154.853 18.5794 155.577 17.953 157.476 17.7776L160.051 17.5771V18.2286C160.051 20.1328 158.852 21.2604 156.977 21.2604Z" fill="#BAC3DA"/>
<path d="M32.1821 18.8311L30.3586 10.2311C30.3425 10.1547 30.3196 10.0799 30.2902 10.0075C30.0312 9.11301 29.6846 8.91931 29.2172 8.54294C28.7848 8.21853 28.5988 8.0957 28.5988 8.0957C28.5988 8.0957 27.416 10.8012 27.0933 11.0579C23.9297 13.5775 18.6295 17.5035 17.3338 18.2121L17.3101 18.2247C16.8842 18.4821 16.4023 18.6342 15.9048 18.6689V31.612C17.011 31.5834 18.0915 31.2744 19.0429 30.7144C20.4737 29.927 24.2794 26.9002 28.7402 23.3128L30.489 21.9081C31.6511 20.9806 32.2091 20.0594 32.1963 19.0877C32.1999 19.002 32.195 18.916 32.1821 18.8311Z" fill="#A8B4D2"/>
<path d="M14.7629 18.3847L4.68596 10.9772C4.6019 10.9076 4.52706 10.8277 4.46321 10.7392C4.4543 10.4961 4.38073 10.2598 4.25006 10.0544C4.11939 9.84913 3.93634 9.68224 3.71968 9.57093L3.784 8.0957C3.784 8.0957 3.5738 8.23352 3.09379 8.52323C2.48988 8.885 2.03654 9.14965 1.72596 10.5732L1.49223 11.7384L0.0271269 19.0581C0.00673472 19.1612 -0.00220823 19.2662 0.000460162 19.3712C0.03497 20.6946 1.17223 21.6217 1.43262 21.8159L12.9244 30.6423C13.7835 31.285 14.8314 31.6258 15.9049 31.6116V18.7308C15.4949 18.7558 15.0896 18.633 14.7629 18.3847Z" fill="#BAC3DA"/>
<path d="M29.653 8.64458C29.633 8.63034 29.6139 8.61499 29.5955 8.59861C29.2347 8.2958 22.1112 3.43825 17.8972 0.570326C17.3395 0.188095 16.6751 -0.0111737 15.9975 0.000483809C15.3199 0.0121413 14.663 0.234141 14.119 0.635326L13.6032 1.02216C12.709 1.6896 11.0483 2.9246 9.04584 4.34032C6.74958 5.96532 4.63697 7.37946 2.75748 8.50031C1.95906 8.97593 1.22132 10.2617 3.23653 11.8296C3.44892 11.9881 14.0503 19.7961 14.0503 19.7961C15.2672 20.6854 16.7074 20.6062 18.1366 19.7833C19.5275 19.0207 24.4521 15.3602 27.558 12.9171L28.3469 12.2941C28.4203 12.2354 28.4874 12.1784 28.5512 12.1213C29.8782 11.0321 30.9912 9.56251 29.653 8.64458Z" fill="#D5DAE7"/>
</g>
<defs>
<clipPath id="clip0_757_13369">
<rect width="163" height="31.6121" fill="white"/>
</clipPath>
</defs>
</svg>
