<svg width="100%" height="55" viewBox="0 0 163 32" fill="none" xmlns="http://www.w3.org/2000/svg">
<g clip-path="url(#clip0_788_13952)">
<path d="M39.3845 17.0315C39.3845 20.9665 41.8337 23.5732 45.5824 23.5732C48.8065 23.5732 51.2056 21.5932 51.5805 18.7108H48.5065C48.1816 20.0643 47.1069 20.8162 45.5824 20.8162C43.6332 20.8162 42.4335 19.3624 42.4335 17.0315C42.4335 14.7005 43.7331 13.2217 45.6824 13.2217C47.1319 13.2217 48.1566 13.9486 48.5065 15.3522H51.5555C51.2306 12.3695 48.9314 10.4897 45.5575 10.4897C41.9087 10.4897 39.3845 13.1967 39.3845 17.0315Z" fill="white"/>
<path d="M53.125 17.0316C53.125 20.8914 55.899 23.5483 59.7228 23.5483C63.5465 23.5483 66.3207 20.8914 66.3207 17.0316C66.3207 13.1717 63.5465 10.5149 59.7228 10.5149C55.899 10.5149 53.125 13.1717 53.125 17.0316ZM56.174 17.0316C56.174 14.7758 57.6235 13.2469 59.7228 13.2469C61.8221 13.2469 63.2717 14.7758 63.2717 17.0316C63.2717 19.2873 61.8221 20.8162 59.7228 20.8162C57.6235 20.8162 56.174 19.2873 56.174 17.0316Z" fill="white"/>
<path d="M73.8108 23.5732C75.6852 23.5732 77.2846 22.7461 78.0343 21.3173L78.2343 23.2473H81.0334V4.59961H78.0095V12.4447C77.2347 11.2165 75.7102 10.4897 73.9858 10.4897C70.2619 10.4897 68.0127 13.2467 68.0127 17.1066C68.0127 20.9414 70.2369 23.5732 73.8108 23.5732ZM74.4856 20.7659C72.3612 20.7659 71.0617 19.212 71.0617 17.0063C71.0617 14.8008 72.3612 13.2217 74.4856 13.2217C76.6099 13.2217 77.9844 14.7756 77.9844 17.0063C77.9844 19.2371 76.6099 20.7659 74.4856 20.7659Z" fill="white"/>
<path d="M89.7341 23.5732C92.958 23.5732 95.2073 21.9441 95.7321 19.2372H92.908C92.5582 20.4151 91.4584 21.0668 89.784 21.0668C87.7597 21.0668 86.6101 19.9639 86.3852 17.7834L95.682 17.7584V16.831C95.682 12.9711 93.3329 10.4897 89.6341 10.4897C86.0103 10.4897 83.4861 13.1716 83.4861 17.0565C83.4861 20.8913 86.0603 23.5732 89.7341 23.5732ZM89.6591 12.9962C91.4834 12.9962 92.6581 14.124 92.6581 15.8284H86.4602C86.76 13.9736 87.8596 12.9962 89.6591 12.9962Z" fill="white"/>
<path d="M111.768 19.7635V16.9564H109.543V4.92554H105.52L97.2476 16.9564V19.7635H106.519V23.2474H109.543V19.7635H111.768ZM100.646 16.9564L106.519 8.38439V16.9564H100.646Z" fill="white"/>
<path d="M122.026 10.8156C121.527 10.6903 121.102 10.6401 120.677 10.6401C119.027 10.6401 117.853 11.4673 117.328 12.6954L117.153 10.8908H114.279V23.2474H117.328V17.232C117.328 14.8258 118.702 13.6478 120.902 13.6478H122.026V10.8156Z" fill="white"/>
<path d="M129.198 23.5732C132.422 23.5732 134.672 21.9441 135.197 19.2372H132.372C132.022 20.4151 130.923 21.0668 129.248 21.0668C127.224 21.0668 126.074 19.9639 125.85 17.7834L135.147 17.7584V16.831C135.147 12.9711 132.797 10.4897 129.099 10.4897C125.475 10.4897 122.951 13.1716 122.951 17.0565C122.951 20.8913 125.525 23.5732 129.198 23.5732ZM129.123 12.9962C130.948 12.9962 132.123 14.124 132.123 15.8284H125.925C126.225 13.9736 127.324 12.9962 129.123 12.9962Z" fill="white"/>
<path d="M140.636 23.2474V16.5803C140.636 14.5752 141.785 13.2719 143.66 13.2719C145.234 13.2719 146.259 14.2744 146.259 16.3548V23.2474H149.307V15.6279C149.307 12.4197 147.709 10.4897 144.61 10.4897C142.935 10.4897 141.435 11.2166 140.661 12.4698L140.411 10.8657H137.587V23.2474H140.636Z" fill="white"/>
<path d="M155.977 23.5732C157.902 23.5732 159.576 22.696 160.101 21.4177L160.327 23.2474H163V15.7281C163 12.2944 160.95 10.4897 157.627 10.4897C154.278 10.4897 152.079 12.2442 152.079 14.926H154.678C154.678 13.6228 155.678 12.8708 157.476 12.8708C159.026 12.8708 160.026 13.5476 160.026 15.2269V15.5026L156.328 15.7782C153.403 16.0039 151.754 17.4325 151.754 19.7134C151.754 22.0443 153.354 23.5732 155.977 23.5732ZM156.977 21.2674C155.602 21.2674 154.853 20.716 154.853 19.588C154.853 18.5855 155.577 17.9589 157.476 17.7834L160.051 17.5829V18.2346C160.051 20.1394 158.852 21.2674 156.977 21.2674Z" fill="white"/>
<path d="M32.1822 18.8373L30.3587 10.2345C30.3426 10.1581 30.3198 10.0832 30.2903 10.0108C30.0313 9.11603 29.6847 8.92227 29.2173 8.54578C28.7849 8.22126 28.5989 8.09839 28.5989 8.09839C28.5989 8.09839 27.4161 10.8048 27.0934 11.0616C23.9299 13.582 18.6296 17.5093 17.334 18.2181L17.3102 18.2308C16.8843 18.4882 16.4024 18.6404 15.9049 18.6751V31.6225C17.0111 31.5939 18.0916 31.2847 19.043 30.7246C20.4738 29.9369 24.2796 26.9091 28.7404 23.3206L30.4891 21.9154C31.6512 20.9875 32.2092 20.066 32.1964 19.0941C32.2 19.0083 32.1951 18.9223 32.1822 18.8373Z" fill="#4D26BC"/>
<path d="M14.7629 18.3907L4.68596 10.9809C4.6019 10.9113 4.52706 10.8313 4.46321 10.7428C4.4543 10.4996 4.38073 10.2632 4.25006 10.0578C4.11939 9.85239 3.93633 9.68545 3.71968 9.5741L3.784 8.09839C3.784 8.09839 3.5738 8.23625 3.09379 8.52606C2.48988 8.88795 2.03654 9.15269 1.72596 10.5767L1.49223 11.7422L0.0271269 19.0645C0.00673472 19.1675 -0.00220823 19.2726 0.000460162 19.3777C0.03497 20.7015 1.17223 21.6289 1.43262 21.8231L12.9244 30.6524C13.7835 31.2953 14.8314 31.6363 15.9049 31.6221V18.737C15.4949 18.762 15.0896 18.6391 14.7629 18.3907Z" fill="#2C0E83"/>
<path d="M29.6529 8.64744C29.6329 8.63319 29.6138 8.61784 29.5954 8.60145C29.2346 8.29854 22.111 3.43939 17.8971 0.570514C17.3393 0.188157 16.675 -0.0111774 15.9974 0.000483969C15.3198 0.0121453 14.6629 0.234218 14.1189 0.635536L13.6031 1.02249C12.7089 1.69015 11.0482 2.92556 9.04572 4.34175C6.74946 5.96729 4.63684 7.3819 2.75736 8.50312C1.95894 8.9789 1.2212 10.265 3.23641 11.8335C3.4488 11.9921 14.0502 19.8026 14.0502 19.8026C15.2671 20.6922 16.7073 20.613 18.1365 19.7898C19.5273 19.027 24.452 15.3653 27.5579 12.9214L28.3467 12.2981C28.4202 12.2395 28.4873 12.1824 28.5511 12.1253C29.8781 11.0358 30.9911 9.56567 29.6529 8.64744Z" fill="#7547F5"/>
</g>
<defs>
<clipPath id="clip0_788_13952">
<rect width="163" height="31.6226" fill="white"/>
</clipPath>
</defs>
</svg>
