<svg width="125" height="20" viewBox="0 0 125 20" fill="none" xmlns="http://www.w3.org/2000/svg">
<g clip-path="url(#clip0_1754_1780)">
<mask id="mask0_1754_1780" style="mask-type:luminance" maskUnits="userSpaceOnUse" x="0" y="0" width="125" height="20">
<path d="M124.126 0.848755H0.25V19.1513H124.126V0.848755Z" fill="white"/>
</mask>
<g mask="url(#mask0_1754_1780)">
<path d="M4.4628 5.16524C5.76167 3.85808 7.48253 3.1372 9.30799 3.1372H16.8361C17.4466 3.1372 17.9415 2.62517 17.9415 1.99361C17.9415 1.36205 17.4466 0.848755 16.8361 0.848755H9.30799C6.90243 0.848755 4.63427 1.79987 2.92071 3.52595C1.19861 5.25959 0.25 7.55936 0.25 10C0.25 12.4407 1.19861 14.7405 2.92071 16.4741C4.63427 18.2002 6.90365 19.1501 9.30799 19.1501H16.8361C17.4466 19.1501 17.9415 18.638 17.9415 18.0065C17.9415 17.3749 17.4466 16.8629 16.8361 16.8629H9.30799C7.48253 16.8629 5.76167 16.1433 4.4628 14.8349C3.17245 13.5353 2.46099 11.818 2.46099 10C2.46099 8.18212 3.17123 6.46483 4.4628 5.16524Z" fill="white"/>
<path d="M56.5682 0.852548C55.9807 0.891548 55.5356 1.42372 55.5356 2.03263C55.5356 3.86313 55.5356 9.52954 55.5356 12.8169C55.5356 13.7139 54.4874 14.1618 53.8744 13.5277L41.9437 1.18468C41.5656 0.793418 40.9574 0.730514 40.5026 1.07397C40.2143 1.29162 40.0551 1.65017 40.0551 2.02005V17.9688C40.0551 18.5777 40.499 19.1098 41.0875 19.1488C41.7322 19.1916 42.2672 18.6645 42.2672 18.0078V7.18448C42.2672 6.28746 43.3156 5.83833 43.9286 6.4724L55.8603 18.8154C56.072 19.0344 56.3542 19.1501 56.6423 19.1501C56.8321 19.1501 57.023 19.0998 57.197 18.9954C57.5471 18.7865 57.7479 18.3852 57.7479 17.9675V1.99363C57.7479 1.33691 57.2127 0.808515 56.5682 0.852548Z" fill="white"/>
<path d="M103.044 0.852459C102.456 0.89146 102.011 1.42363 102.011 2.03254C102.011 3.86304 102.011 9.52945 102.011 12.8168C102.011 13.7138 100.963 14.1617 100.35 13.5276L88.4365 1.20221C88.1835 0.940525 87.8273 0.803394 87.4733 0.861266C86.9163 0.950589 86.5307 1.43998 86.5307 1.99354V17.9674C86.5307 18.5763 86.9747 19.1085 87.5633 19.1475C88.2079 19.1902 88.7431 18.6631 88.7431 18.0064V7.18439C88.7431 6.28737 89.7912 5.83824 90.4043 6.47231L102.336 18.8154C102.548 19.0343 102.83 19.15 103.118 19.15C103.308 19.15 103.499 19.0997 103.673 18.9953C104.023 18.7864 104.224 18.3851 104.224 17.9674V1.99354C104.224 1.33682 103.688 0.808426 103.044 0.852459Z" fill="white"/>
<path d="M76.2275 0.412964H60.7858C60.1971 0.412964 59.6827 0.872164 59.6449 1.48108C59.6036 2.14786 60.1132 2.70142 60.748 2.70142H66.7741C67.1098 2.70142 67.3823 2.98323 67.3823 3.33046V17.5317C67.3823 18.1406 67.8261 18.6728 68.4147 18.7118C69.0593 18.7545 69.5944 18.2274 69.5944 17.5707V3.33046C69.5944 2.98323 69.8668 2.70142 70.2025 2.70142H76.191C76.7795 2.70142 77.2939 2.24222 77.3317 1.6333C77.373 0.96652 76.8634 0.412964 76.2285 0.412964H76.2275Z" fill="white"/>
<path d="M80.9547 0.848755C80.3442 0.848755 79.8492 1.3608 79.8492 1.99235V18.0065C79.8492 18.638 80.3442 19.1501 80.9547 19.1501C81.5652 19.1501 82.0603 18.638 82.0603 18.0065V1.99361C82.0603 1.36205 81.5652 0.850013 80.9547 0.850013V0.848755Z" fill="white"/>
<path d="M28.9988 0.848755C26.6396 0.848755 24.4164 1.83006 22.7405 3.61151C21.072 5.38414 20.1537 7.73047 20.1537 10.2189V18.0065C20.1537 18.638 20.6488 19.1501 21.2593 19.1501C21.8698 19.1501 22.3648 18.638 22.3648 18.0065V10.2189C22.3648 8.33058 23.0604 6.55039 24.3251 5.20675C25.5814 3.87192 27.2415 3.13596 28.9988 3.13596C30.7563 3.13596 32.4163 3.87068 33.6725 5.20675C34.9362 6.55039 35.6331 8.33058 35.6331 10.2189V18.0065C35.6331 18.638 36.128 19.1501 36.7386 19.1501C37.3491 19.1501 37.844 18.638 37.844 18.0065V10.2189C37.844 7.73047 36.9259 5.38414 35.2574 3.61151C33.5815 1.83132 31.3582 0.848755 28.9988 0.848755Z" fill="white"/>
<path d="M28.9988 10C28.3885 10 27.8934 10.512 27.8934 11.1436V18.0064C27.8934 18.638 28.3885 19.15 28.9988 19.15C29.6094 19.15 30.1045 18.638 30.1045 18.0064V11.1436C30.1045 10.512 29.6094 10 28.9988 10Z" fill="#FA5E06"/>
<path d="M121.539 3.61151C119.863 1.83132 117.64 0.848755 115.281 0.848755C112.922 0.848755 110.698 1.83006 109.023 3.61151C107.354 5.38414 106.436 7.73047 106.436 10.2189V18.0065C106.436 18.638 106.931 19.1501 107.541 19.1501C108.152 19.1501 108.647 18.638 108.647 18.0065V10.2189C108.647 8.33058 109.342 6.55039 110.607 5.20675C111.863 3.87192 113.524 3.13596 115.281 3.13596C117.038 3.13596 118.698 3.87068 119.955 5.20675C121.218 6.55039 121.915 8.33058 121.915 10.2189V18.0065C121.915 18.638 122.41 19.1501 123.021 19.1501C123.631 19.1501 124.126 18.638 124.126 18.0065V10.2189C124.126 7.73047 123.208 5.38414 121.539 3.61151Z" fill="white"/>
<path d="M115.281 10C114.671 10 114.175 10.512 114.175 11.1436V18.0064C114.175 18.638 114.671 19.15 115.281 19.15C115.892 19.15 116.386 18.638 116.386 18.0064V11.1436C116.386 10.512 115.892 10 115.281 10Z" fill="#FA5E06"/>
</g>
</g>
<defs>
<clipPath id="clip0_1754_1780">
<rect width="124" height="18.3026" fill="white" transform="translate(0.25 0.848755)"/>
</clipPath>
</defs>
</svg>
