<svg width="100%" height="50" viewBox="0 0 200 50" fill="none" xmlns="http://www.w3.org/2000/svg">
<path fill-rule="evenodd" clip-rule="evenodd" d="M41.157 7.60236L41.4099 9.18289C41.5996 10.637 41.6944 12.0911 41.6628 13.5768C41.6628 16.8327 41.2834 20.0569 40.5248 23.218C39.5133 27.4854 37.7431 31.5632 35.309 35.23C32.4957 39.4026 28.4179 43.4804 22.5067 46.8311L21.7797 47.2421L21.0527 46.8311C15.1415 43.5436 11.0637 39.4342 8.25037 35.23C5.78474 31.5632 4.04616 27.517 3.03462 23.218C2.27596 20.0569 1.89664 16.8327 1.89664 13.5768C1.89664 12.1227 1.95986 10.637 2.14952 9.18289L2.3708 7.60236C2.40241 7.47592 2.40241 7.34948 2.3708 7.22303C2.33918 7.09659 2.30757 6.97015 2.21274 6.87532C2.14952 6.78048 2.05469 6.68566 1.95986 6.62243C1.86502 6.55921 1.73858 6.5276 1.64375 6.49599C1.51731 6.46438 1.39087 6.46438 1.26442 6.49599C1.13798 6.5276 1.01154 6.59082 0.916708 6.65404C0.821876 6.71726 0.727043 6.8121 0.663822 6.90693C0.600601 7.03337 0.56899 7.15981 0.537379 7.28625L0.284496 8.86678C0.0948323 10.4157 0 11.9962 0 13.5768C0 16.9907 0.410939 20.373 1.2012 23.6922C1.73858 25.9365 2.46563 28.1493 3.38233 30.2672C4.29904 32.3851 5.40541 34.4082 6.70145 36.3364C9.67284 40.7619 13.9719 45.0925 20.1676 48.5065L21.3372 49.1703C21.4952 49.2335 21.6533 49.2651 21.8113 49.2651C21.9694 49.2651 22.1274 49.2335 22.2855 49.1703L23.4551 48.5065C29.6191 45.0609 33.9498 40.7303 36.9212 36.3364C39.5133 32.4799 41.3783 28.1809 42.4214 23.6922C43.2117 20.373 43.591 16.9907 43.591 13.5768C43.591 11.9962 43.4962 10.4157 43.3065 8.83518L43.0536 7.25465C43.022 7.1282 42.9904 7.00176 42.9272 6.87532C42.864 6.78048 42.7691 6.68566 42.6743 6.62243C42.5795 6.55921 42.453 6.49599 42.3266 6.46438C42.2002 6.43277 42.0737 6.43277 41.9473 6.46438C41.8208 6.49599 41.6944 6.5276 41.5679 6.59082C41.4731 6.65404 41.3783 6.74888 41.3151 6.84371C41.2518 6.93854 41.1886 7.06498 41.157 7.19142V7.60236Z" fill="#BAC3DA"/>
<path fill-rule="evenodd" clip-rule="evenodd" d="M7.68118 6.52759L21.8427 2.07049L36.2888 6.62242C36.4152 6.65403 36.5417 6.65403 36.6681 6.65403C36.7945 6.65403 36.921 6.62242 37.0474 6.5592C37.1739 6.49598 37.2687 6.43276 37.3635 6.30632C37.4584 6.21148 37.5216 6.08504 37.5216 5.9586C37.5532 5.83216 37.5532 5.70571 37.5532 5.57927C37.5532 5.45283 37.5216 5.32639 37.4584 5.19995C37.3952 5.0735 37.3319 4.97867 37.2371 4.88384C37.1423 4.78901 37.0158 4.72579 36.8894 4.72579L22.1272 0.0474159C21.9376 -0.0158053 21.7479 -0.0158053 21.5582 0.0474159L7.1438 4.59934C7.01736 4.63095 6.92253 4.69417 6.79609 4.75739C6.70125 4.85223 6.60642 4.94706 6.57481 5.0735C6.51159 5.19994 6.47998 5.32638 6.47998 5.45283C6.47998 5.57927 6.47998 5.70572 6.51159 5.83216C6.5432 5.9586 6.60642 6.08504 6.66964 6.17987C6.73286 6.2747 6.85931 6.36954 6.98575 6.43276C7.08058 6.49598 7.20703 6.52759 7.36508 6.52759C7.4283 6.5592 7.55474 6.5592 7.68118 6.52759Z" fill="#BAC3DA"/>
<path fill-rule="evenodd" clip-rule="evenodd" d="M0.695198 7.88684L20.9576 48.7277C21.0208 48.8858 21.1473 49.0122 21.2737 49.1071C21.5898 49.2967 21.9691 49.2967 22.2852 49.1071C22.4433 49.0122 22.5697 48.8858 22.6646 48.7277L35.0243 24.8617L35.0559 24.8301L42.9586 7.85522C43.0218 7.72878 43.0534 7.60234 43.0534 7.4759C43.0534 7.34945 43.0534 7.22301 42.9902 7.09657C42.9586 6.97013 42.8954 6.84368 42.8005 6.74885C42.7373 6.65402 42.6109 6.55919 42.516 6.49597C42.4212 6.43275 42.2948 6.40113 42.1367 6.40113C42.0103 6.40113 41.8838 6.40114 41.7574 6.43275C41.6309 6.46436 41.5045 6.52758 41.4097 6.62241C41.3148 6.71724 41.22 6.81208 41.1884 6.93852L33.2857 23.9134L21.7795 46.1357L2.37056 6.93852C2.30734 6.84369 2.21251 6.71724 2.14929 6.62241C2.05446 6.52758 1.92801 6.46436 1.80157 6.43275C1.67513 6.36953 1.54869 6.36952 1.42224 6.40113C1.2958 6.40113 1.16936 6.43275 1.04292 6.49597C0.948085 6.55919 0.821642 6.65402 0.758421 6.74885C0.6952 6.84368 0.631978 6.97013 0.600368 7.09657C0.568757 7.22301 0.537147 7.34945 0.568758 7.4759C0.600368 7.63395 0.631977 7.76039 0.695198 7.88684Z" fill="#BAC3DA"/>
<path fill-rule="evenodd" clip-rule="evenodd" d="M10.3997 26.0946H32.9697C33.0961 26.0946 33.2226 26.063 33.349 26.0313C33.4754 25.9997 33.5703 25.9049 33.6335 25.8101C33.7283 25.7152 33.7916 25.6204 33.8232 25.494C33.918 25.2411 33.918 24.9882 33.8232 24.7353C33.7916 24.6089 33.6967 24.514 33.6335 24.4192C33.5387 24.3244 33.4438 24.2612 33.349 24.1979C33.2226 24.1663 33.0961 24.1347 32.9697 24.1347H10.3997C10.2733 24.1347 10.1468 24.1663 10.0204 24.1979C9.89394 24.2295 9.79911 24.3244 9.73589 24.4192C9.64106 24.514 9.57783 24.6089 9.54622 24.7353C9.45139 24.9882 9.45139 25.2411 9.54622 25.494C9.57783 25.6204 9.64106 25.7152 9.73589 25.8101C9.83072 25.9049 9.92555 25.9681 10.0204 26.0313C10.1468 26.063 10.2733 26.063 10.3997 26.0946ZM73.3048 17.5913H58.6375C58.511 17.5913 58.3846 17.6229 58.2582 17.6545C58.1317 17.6861 58.0369 17.781 57.9737 17.8758C57.8788 17.9706 57.8156 18.0655 57.784 18.1919C57.7524 18.3184 57.7208 18.4448 57.7208 18.5712V30.7413C57.7208 30.8678 57.7524 30.9942 57.784 31.1207C57.8156 31.2471 57.8788 31.3419 57.9737 31.4368C58.0685 31.5316 58.1633 31.5948 58.2582 31.658C58.3846 31.6896 58.511 31.7213 58.6375 31.7213H73.3048V33.7759H58.6375C58.4478 33.7759 58.2582 33.7443 58.0685 33.7127C57.8788 33.6811 57.6892 33.6179 57.4995 33.5547C57.3098 33.4914 57.1518 33.3966 56.9937 33.3018C56.8357 33.1753 56.7092 33.0489 56.5512 32.9225C56.2667 32.638 56.077 32.3219 55.919 31.9741C55.8558 31.7845 55.7925 31.5948 55.7609 31.4051C55.7293 31.2155 55.6977 31.0258 55.6977 30.8362V18.6029C55.6977 18.4132 55.7293 18.2235 55.7609 18.0339C55.7925 17.8442 55.8558 17.6545 55.919 17.4649C55.9822 17.2752 56.077 17.0855 56.1719 16.9275C56.2667 16.7694 56.3931 16.6114 56.5512 16.4849C56.6776 16.3585 56.8357 16.2321 56.9937 16.1056C57.1518 16.0108 57.3098 15.9159 57.4995 15.8527C57.6892 15.7895 57.8788 15.7263 58.0685 15.6947C58.2582 15.6631 58.4478 15.6315 58.6375 15.6315H73.3048V17.5913ZM100.838 15.5366V17.5913H86.7077V23.6289H98.0559V25.7152H86.7077V31.7529H100.838V33.8076H84.7478V15.5366H100.838Z" fill="#BAC3DA"/>
<path d="M129.953 18.6345V23.9767C129.953 24.1663 129.921 24.356 129.889 24.5456C129.858 24.7353 129.795 24.925 129.731 25.1146C129.668 25.3043 129.573 25.494 129.479 25.652C129.352 25.8101 129.257 25.9681 129.099 26.0946C128.973 26.221 128.815 26.3475 128.657 26.4739C128.499 26.5687 128.341 26.6636 128.151 26.7268C127.961 26.79 127.772 26.8532 127.582 26.9164C127.392 26.9481 127.203 26.9797 127.013 26.9797H124.326L129.858 33.7759H127.203L121.702 26.9797H115.254C114.938 26.9797 114.622 26.9481 114.305 26.8848V33.7759H112.314V15.5682H127.045C127.234 15.5682 127.424 15.5999 127.614 15.6315C127.803 15.6631 127.993 15.7263 128.182 15.7895C128.372 15.8527 128.53 15.9476 128.688 16.074C129.004 16.2953 129.257 16.5798 129.479 16.8959C129.573 17.0539 129.668 17.2436 129.731 17.4333C129.795 17.6229 129.858 17.8126 129.889 18.0023C129.921 18.2235 129.953 18.4448 129.953 18.6345ZM115.222 24.9566H127.013C127.139 24.9566 127.266 24.925 127.392 24.8934C127.519 24.8618 127.613 24.7985 127.677 24.6721C127.772 24.5773 127.835 24.4824 127.866 24.356C127.898 24.2295 127.93 24.1031 127.93 23.9767V18.6345C127.93 18.3816 127.835 18.1287 127.677 17.939C127.519 17.7494 127.266 17.6229 127.013 17.6229H115.222C115.096 17.6229 114.969 17.6545 114.843 17.6862C114.716 17.7178 114.622 17.8126 114.558 17.9074C114.463 18.0023 114.4 18.0971 114.369 18.2235C114.337 18.35 114.305 18.4764 114.305 18.6029V23.945C114.305 24.1979 114.4 24.4508 114.622 24.6405C114.748 24.8301 115.001 24.9566 115.222 24.9566Z" fill="#BAC3DA"/>
<path fill-rule="evenodd" clip-rule="evenodd" d="M140.508 15.5366H158.147V17.5913H150.339V33.7759H148.348V17.5913H140.508V15.5366ZM168.895 33.8076V15.5682H170.886V33.8076H168.895ZM197.407 15.5366H199.968L192.603 24.6721L199.999 33.8076H197.407L190.832 25.7152H185.142V33.8076H183.151V15.5682H185.174V23.6606H190.864L197.407 15.5366Z" fill="#BAC3DA"/>
</svg>
