<svg width="200" height="50" viewBox="0 0 200 50" fill="none" xmlns="http://www.w3.org/2000/svg">
<path fill-rule="evenodd" clip-rule="evenodd" d="M41.157 7.6023L41.4099 9.18283C41.5996 10.6369 41.6944 12.091 41.6628 13.5767C41.6628 16.8326 41.2834 20.0569 40.5248 23.2179C39.5133 27.4854 37.7431 31.5631 35.309 35.23C32.4957 39.4026 28.4179 43.4803 22.5067 46.8311L21.7797 47.242L21.0527 46.8311C15.1415 43.5435 11.0637 39.4342 8.25037 35.23C5.78474 31.5631 4.04616 27.517 3.03462 23.2179C2.27596 20.0569 1.89664 16.8326 1.89664 13.5767C1.89664 12.1226 1.95986 10.6369 2.14952 9.18283L2.3708 7.6023C2.40241 7.47586 2.40241 7.34942 2.3708 7.22297C2.33918 7.09653 2.30757 6.97009 2.21274 6.87525C2.14952 6.78042 2.05469 6.68559 1.95986 6.62237C1.86502 6.55915 1.73858 6.52754 1.64375 6.49593C1.51731 6.46432 1.39087 6.46432 1.26442 6.49593C1.13798 6.52754 1.01154 6.59076 0.916708 6.65398C0.821876 6.7172 0.727043 6.81204 0.663822 6.90687C0.600601 7.03331 0.56899 7.15975 0.537379 7.28619L0.284496 8.86672C0.0948323 10.4156 0 11.9962 0 13.5767C0 16.9907 0.410939 20.373 1.2012 23.6921C1.73858 25.9365 2.46563 28.1492 3.38233 30.2671C4.29904 32.385 5.40541 34.4081 6.70145 36.3363C9.67284 40.7618 13.9719 45.0925 20.1676 48.5064L21.3372 49.1702C21.4952 49.2335 21.6533 49.2651 21.8113 49.2651C21.9694 49.2651 22.1274 49.2335 22.2855 49.1702L23.4551 48.5064C29.6191 45.0609 33.9498 40.7302 36.9212 36.3363C39.5133 32.4798 41.3783 28.1808 42.4214 23.6921C43.2117 20.373 43.591 16.9907 43.591 13.5767C43.591 11.9962 43.4962 10.4156 43.3065 8.83512L43.0536 7.25459C43.022 7.12814 42.9904 7.0017 42.9272 6.87525C42.864 6.78042 42.7691 6.68559 42.6743 6.62237C42.5795 6.55915 42.453 6.49593 42.3266 6.46432C42.2002 6.43271 42.0737 6.43271 41.9473 6.46432C41.8208 6.49593 41.6944 6.52754 41.5679 6.59076C41.4731 6.65398 41.3783 6.74882 41.3151 6.84365C41.2518 6.93848 41.1886 7.06492 41.157 7.19136V7.6023Z" fill="#D8AC5C"/>
<path fill-rule="evenodd" clip-rule="evenodd" d="M7.68167 6.52759L21.8432 2.07049L36.2893 6.62242C36.4157 6.65403 36.5422 6.65403 36.6686 6.65403C36.795 6.65403 36.9215 6.62242 37.0479 6.5592C37.1744 6.49598 37.2692 6.43276 37.364 6.30632C37.4589 6.21148 37.5221 6.08504 37.5221 5.9586C37.5537 5.83216 37.5537 5.70571 37.5537 5.57927C37.5537 5.45283 37.5221 5.32639 37.4589 5.19995C37.3956 5.0735 37.3324 4.97867 37.2376 4.88384C37.1428 4.78901 37.0163 4.72579 36.8899 4.72579L22.1277 0.0474159C21.9381 -0.0158053 21.7484 -0.0158053 21.5587 0.0474159L7.14429 4.59934C7.01785 4.63095 6.92302 4.69417 6.79657 4.75739C6.70174 4.85223 6.60691 4.94706 6.5753 5.0735C6.51208 5.19994 6.48047 5.32638 6.48047 5.45283C6.48047 5.57927 6.48047 5.70572 6.51208 5.83216C6.54369 5.9586 6.60691 6.08504 6.67013 6.17987C6.73335 6.2747 6.8598 6.36954 6.98624 6.43276C7.08107 6.49598 7.20751 6.52759 7.36557 6.52759C7.42879 6.5592 7.55523 6.5592 7.68167 6.52759Z" fill="#D8AC5C"/>
<path fill-rule="evenodd" clip-rule="evenodd" d="M0.695198 7.8869L20.9576 48.7278C21.0208 48.8858 21.1473 49.0123 21.2737 49.1071C21.5898 49.2968 21.9691 49.2968 22.2852 49.1071C22.4433 49.0123 22.5697 48.8858 22.6646 48.7278L35.0243 24.8618L35.0559 24.8302L42.9586 7.85528C43.0218 7.72884 43.0534 7.6024 43.0534 7.47596C43.0534 7.34952 43.0534 7.22307 42.9902 7.09663C42.9586 6.97019 42.8954 6.84375 42.8005 6.74891C42.7373 6.65408 42.6109 6.55925 42.516 6.49603C42.4212 6.43281 42.2948 6.40119 42.1367 6.40119C42.0103 6.40119 41.8838 6.4012 41.7574 6.43281C41.6309 6.46442 41.5045 6.52764 41.4097 6.62247C41.3148 6.7173 41.22 6.81214 41.1884 6.93858L33.2857 23.9135L21.7795 46.1357L2.37056 6.93858C2.30734 6.84375 2.21251 6.7173 2.14929 6.62247C2.05446 6.52764 1.92801 6.46442 1.80157 6.43281C1.67513 6.36959 1.54869 6.36958 1.42224 6.40119C1.2958 6.40119 1.16936 6.43281 1.04292 6.49603C0.948085 6.55925 0.821642 6.65408 0.758421 6.74891C0.6952 6.84375 0.631978 6.97019 0.600368 7.09663C0.568757 7.22307 0.537147 7.34952 0.568758 7.47596C0.600368 7.63401 0.631977 7.76045 0.695198 7.8869Z" fill="#D8AC5C"/>
<path fill-rule="evenodd" clip-rule="evenodd" d="M10.3992 26.0946H32.9692C33.0956 26.0946 33.2221 26.063 33.3485 26.0313C33.475 25.9997 33.5698 25.9049 33.633 25.8101C33.7278 25.7152 33.7911 25.6204 33.8227 25.494C33.9175 25.2411 33.9175 24.9882 33.8227 24.7353C33.7911 24.6089 33.6962 24.514 33.633 24.4192C33.5382 24.3244 33.4433 24.2612 33.3485 24.1979C33.2221 24.1663 33.0956 24.1347 32.9692 24.1347H10.3992C10.2728 24.1347 10.1463 24.1663 10.0199 24.1979C9.89345 24.2295 9.79862 24.3244 9.7354 24.4192C9.64057 24.514 9.57734 24.6089 9.54573 24.7353C9.4509 24.9882 9.4509 25.2411 9.54573 25.494C9.57734 25.6204 9.64057 25.7152 9.7354 25.8101C9.83023 25.9049 9.92506 25.9681 10.0199 26.0313C10.1463 26.063 10.2728 26.063 10.3992 26.0946Z" fill="#D8AC5C"/>
<path fill-rule="evenodd" clip-rule="evenodd" d="M73.3044 17.5913H58.637C58.5106 17.5913 58.3842 17.6229 58.2577 17.6545C58.1313 17.6861 58.0364 17.781 57.9732 17.8758C57.8784 17.9706 57.8152 18.0655 57.7836 18.1919C57.7519 18.3184 57.7203 18.4448 57.7203 18.5712V30.7413C57.7203 30.8678 57.7519 30.9942 57.7836 31.1207C57.8152 31.2471 57.8784 31.3419 57.9732 31.4368C58.0681 31.5316 58.1629 31.5948 58.2577 31.658C58.3842 31.6896 58.5106 31.7213 58.637 31.7213H73.3044V33.7759H58.637C58.4474 33.7759 58.2577 33.7443 58.0681 33.7127C57.8784 33.6811 57.6887 33.6179 57.4991 33.5547C57.3094 33.4914 57.1513 33.3966 56.9933 33.3018C56.8352 33.1753 56.7088 33.0489 56.5507 32.9225C56.2662 32.638 56.0766 32.3219 55.9185 31.9741C55.8553 31.7845 55.7921 31.5948 55.7605 31.4051C55.7289 31.2155 55.6973 31.0258 55.6973 30.8362V18.6029C55.6973 18.4132 55.7289 18.2235 55.7605 18.0339C55.7921 17.8442 55.8553 17.6545 55.9185 17.4649C55.9818 17.2752 56.0766 17.0855 56.1714 16.9275C56.2663 16.7694 56.3927 16.6114 56.5507 16.4849C56.6772 16.3585 56.8352 16.2321 56.9933 16.1056C57.1513 16.0108 57.3094 15.9159 57.4991 15.8527C57.6887 15.7895 57.8784 15.7263 58.0681 15.6947C58.2577 15.6631 58.4474 15.6315 58.637 15.6315H73.3044V17.5913ZM100.837 15.5366V17.5913H86.7073V23.6289H98.0555V25.7152H86.7073V31.7529H100.837V33.8076H84.7474V15.5366H100.837Z" fill="white"/>
<path d="M129.952 18.6345V23.9767C129.952 24.1663 129.921 24.356 129.889 24.5456C129.857 24.7353 129.794 24.925 129.731 25.1146C129.668 25.3043 129.573 25.494 129.478 25.652C129.352 25.8101 129.257 25.9681 129.099 26.0946C128.972 26.221 128.814 26.3475 128.656 26.4739C128.498 26.5687 128.34 26.6636 128.15 26.7268C127.961 26.79 127.771 26.8532 127.581 26.9164C127.392 26.9481 127.202 26.9797 127.012 26.9797H124.326L129.857 33.7759H127.202L121.702 26.9797H115.253C114.937 26.9797 114.621 26.9481 114.305 26.8848V33.7759H112.313V15.5682H127.044C127.234 15.5682 127.423 15.5999 127.613 15.6315C127.803 15.6631 127.992 15.7263 128.182 15.7895C128.372 15.8527 128.53 15.9476 128.688 16.074C129.004 16.2953 129.257 16.5798 129.478 16.8959C129.573 17.0539 129.668 17.2436 129.731 17.4333C129.794 17.6229 129.857 17.8126 129.889 18.0023C129.921 18.2235 129.952 18.4448 129.952 18.6345ZM115.222 24.9566H127.012C127.139 24.9566 127.265 24.925 127.392 24.8934C127.518 24.8618 127.613 24.7985 127.676 24.6721C127.771 24.5773 127.834 24.4824 127.866 24.356C127.898 24.2295 127.929 24.1031 127.929 23.9767V18.6345C127.929 18.3816 127.834 18.1287 127.676 17.939C127.518 17.7494 127.265 17.6229 127.012 17.6229H115.222C115.095 17.6229 114.969 17.6545 114.842 17.6862C114.716 17.7178 114.621 17.8126 114.558 17.9074C114.463 18.0023 114.4 18.0971 114.368 18.2235C114.337 18.35 114.305 18.4764 114.305 18.6029V23.945C114.305 24.1979 114.4 24.4508 114.621 24.6405C114.747 24.8301 115 24.9566 115.222 24.9566Z" fill="white"/>
<path fill-rule="evenodd" clip-rule="evenodd" d="M140.508 15.5366H158.147V17.5913H150.339V33.7759H148.347V17.5913H140.508V15.5366ZM168.894 33.8076V15.5682H170.886V33.8076H168.894ZM197.407 15.5366H199.967L192.602 24.6721L199.999 33.8076H197.407L190.832 25.7152H185.142V33.8076H183.151V15.5682H185.174V23.6605H190.863L197.407 15.5366Z" fill="white"/>
</svg>
