<svg width="100%" height="55" viewBox="0 0 162 45" fill="none" xmlns="http://www.w3.org/2000/svg">
<mask id="mask0_839_7929" style="mask-type:luminance" maskUnits="userSpaceOnUse" x="0" y="0" width="162" height="45">
<path d="M162 0H0V44.9343H162V0Z" fill="white"/>
</mask>
<g mask="url(#mask0_839_7929)">
<path fill-rule="evenodd" clip-rule="evenodd" d="M55.4115 21.6285V23.5161H49.121V27.8811H46.894V22.3593C46.9051 20.7716 47.0521 19.7294 47.3359 19.2328C47.6942 18.5351 48.2129 18.0361 48.8924 17.7405C49.572 17.4445 50.5282 17.2967 51.7615 17.2967H55.4115V19.1843H52.0453C51.0032 19.2064 50.3327 19.2903 50.0379 19.4381C49.4486 19.6809 49.1431 20.2221 49.121 21.0566V21.6285H55.4115ZM57.6231 27.8811L61.9853 17.2967H64.5619L68.9241 27.8811H66.3009L65.2741 25.4369H61.275L60.2482 27.8811H57.6255H57.6231ZM63.2801 19.8512L61.7783 23.5492H64.7818L63.2801 19.8512ZM71.6391 27.8811V17.2967H73.8842V27.8811H71.6391ZM79.84 23.865V27.8811H77.5952V17.2967H82.7465C84.2218 17.2967 85.2486 17.4863 85.8292 17.8682C86.2293 18.1224 86.5371 18.4579 86.7523 18.8753C86.968 19.2923 87.0756 19.7515 87.0756 20.2485C87.0756 21.2529 86.8229 22.0325 86.3172 22.582C86.0007 22.9111 85.5848 23.1582 85.0685 23.3285C85.4796 23.4763 85.7894 23.6332 86.0007 23.7964C86.2116 23.96 86.4008 24.2004 86.5699 24.5185C86.6952 24.7723 86.7878 25.0151 86.847 25.2493C86.9041 25.481 86.9502 25.8255 86.981 26.2804C87.0448 27.0419 87.1284 27.5764 87.234 27.883H84.7208C84.6464 27.6402 84.5691 27.1369 84.4836 26.3754C84.4308 25.7617 84.3231 25.291 84.1604 24.9623C83.9976 24.6332 83.7512 24.375 83.426 24.185C83.0149 23.9619 82.419 23.8559 81.6409 23.8669H79.84V23.865ZM79.84 21.9773H82.9842C83.5116 21.9773 83.8856 21.8977 84.1052 21.7389C84.4418 21.5071 84.6109 21.0983 84.6109 20.5177C84.6109 19.8733 84.3582 19.4602 83.8525 19.2793C83.6724 19.215 83.3842 19.1843 82.9842 19.1843H79.84V21.9773ZM93.3199 23.2465L89.4173 17.2967H92.04L94.4586 21.4385L97.0025 17.2967H99.6737L95.5646 23.3261V27.8811H93.3199V23.2465ZM104.603 24.1827V27.8811H102.358V17.2967H107.62C108.578 17.2967 109.264 17.3649 109.673 17.502C110.368 17.7338 110.915 18.217 111.315 18.9458C111.61 19.4957 111.757 20.094 111.757 20.7385C111.757 21.2773 111.661 21.7897 111.465 22.271C111.269 22.7522 110.999 23.1472 110.651 23.4519C110.335 23.7282 110.001 23.9178 109.649 24.0238C109.295 24.1298 108.813 24.1827 108.202 24.1827H104.599H104.603ZM104.603 22.295H107.652C108.2 22.295 108.585 22.2111 108.807 22.0412C109.134 21.7763 109.297 21.3171 109.297 20.6612C109.297 19.9525 109.048 19.4977 108.554 19.297C108.376 19.2217 108.09 19.1863 107.701 19.1863H104.603V22.2974V22.295ZM117.007 23.8669V27.883H114.763V17.2986H119.914C121.389 17.2986 122.416 17.4886 122.997 17.8706C123.397 18.1244 123.705 18.4602 123.92 18.8773C124.135 19.2947 124.243 19.7539 124.243 20.2505C124.243 21.2552 123.99 22.0345 123.485 22.5843C123.168 22.9135 122.753 23.1606 122.236 23.3305C122.647 23.4787 122.957 23.6352 123.168 23.7987C123.379 23.9619 123.568 24.2028 123.738 24.5208C123.863 24.7747 123.955 25.0175 124.014 25.2516C124.071 25.4834 124.118 25.8279 124.149 26.2823C124.212 27.0443 124.296 27.5783 124.401 27.8854H121.889C121.814 27.6426 121.737 27.1393 121.651 26.3773C121.598 25.7636 121.491 25.2934 121.328 24.9643C121.165 24.6355 120.919 24.377 120.593 24.1874C120.182 23.9643 119.586 23.8583 118.808 23.8693H117.007V23.8669ZM117.007 21.9793H120.152C120.679 21.9793 121.053 21.9001 121.273 21.7408C121.609 21.5091 121.779 21.1007 121.779 20.5201C121.779 19.8753 121.526 19.4626 121.02 19.2813C120.84 19.2174 120.552 19.1863 120.152 19.1863H117.007V21.9793ZM132.257 17.2348C133.31 17.2348 134.238 17.4137 135.038 17.7736C135.977 18.206 136.635 18.9324 137.013 19.9482C137.307 20.7408 137.454 21.6726 137.454 22.7412C137.454 23.8098 137.274 24.7569 136.918 25.5496C136.465 26.4901 135.771 27.1523 134.832 27.5322C134.137 27.8081 133.337 27.9449 132.428 27.9449C131.239 27.9449 130.206 27.7222 129.331 27.2784C128.594 26.9075 128.029 26.3265 127.64 25.5319C127.251 24.7392 127.055 23.7767 127.055 22.6439C127.055 20.6238 127.556 19.1843 128.557 18.3278C129.399 17.6077 130.632 17.2435 132.255 17.2324L132.257 17.2348ZM132.272 19.0121C131.239 19.0121 130.503 19.3499 130.061 20.0278C129.702 20.5576 129.524 21.4078 129.524 22.582C129.524 23.8185 129.746 24.7305 130.188 25.3111C130.63 25.8831 131.332 26.1676 132.29 26.1676C133.249 26.1676 133.899 25.8764 134.337 25.2958C134.775 24.7128 134.992 23.8141 134.992 22.5977C134.992 21.487 134.814 20.6392 134.456 20.0586C134.045 19.3719 133.319 19.0207 132.275 19.0121H132.272ZM145.247 17.2348C146.299 17.2348 147.227 17.4137 148.028 17.7736C148.967 18.206 149.624 18.9324 150.002 19.9482C150.297 20.7408 150.444 21.6726 150.444 22.7412C150.444 23.8098 150.264 24.7569 149.908 25.5496C149.455 26.4901 148.76 27.1523 147.821 27.5322C147.126 27.8081 146.326 27.9449 145.418 27.9449C144.228 27.9449 143.195 27.7222 142.32 27.2784C141.584 26.9075 141.018 26.3265 140.629 25.5319C140.24 24.7392 140.044 23.7767 140.044 22.6439C140.044 20.6238 140.546 19.1843 141.546 18.3278C142.388 17.6077 143.622 17.2435 145.244 17.2324L145.247 17.2348ZM145.262 19.0121C144.228 19.0121 143.492 19.3499 143.05 20.0278C142.692 20.5576 142.513 21.4078 142.513 22.582C142.513 23.8185 142.736 24.7305 143.178 25.3111C143.619 25.8831 144.321 26.1676 145.279 26.1676C146.238 26.1676 146.889 25.8764 147.326 25.2958C147.764 24.7128 147.982 23.8141 147.982 22.5977C147.982 21.487 147.803 20.6392 147.445 20.0586C147.034 19.3719 146.308 19.0207 145.264 19.0121H145.262ZM161.998 21.6305V23.5181H155.708V27.883H153.478V22.3612C153.489 20.774 153.636 19.7318 153.92 19.2352C154.278 18.5375 154.797 18.0385 155.477 17.7425C156.156 17.4468 157.112 17.2986 158.346 17.2986H161.995V19.1863H158.63C157.587 19.2087 156.916 19.2923 156.622 19.4405C156.033 19.6833 155.727 20.2241 155.705 21.0585V21.6305H161.995H161.998Z" fill="white"/>
<path fill-rule="evenodd" clip-rule="evenodd" d="M21.7726 0.395259C26.3283 2.13504 30.8816 3.87924 35.4393 5.61241C37.9194 6.55516 39.4605 8.51575 39.4254 11.216V11.3506L39.4077 11.4853C38.889 16.0093 38.3175 20.5287 37.8488 25.0569C37.5126 28.3004 36.785 31.3958 34.7535 34.0165C33.2474 35.9593 31.2356 37.3748 29.1954 38.6972C26.5218 40.4303 23.8305 42.0574 21.2097 43.8855L19.7103 44.932L18.2109 43.8855C15.5902 42.0554 12.9012 40.4303 10.2256 38.6972C8.18546 37.3748 6.17563 35.9593 4.66757 34.0165C2.63607 31.3958 1.90833 28.3004 1.57191 25.0569C1.10582 20.5287 0.536375 16.0093 0.0175021 11.4853L0.00212928 11.3506V11.216C-0.0352371 8.51575 1.50597 6.55516 3.98804 5.61241C8.54572 3.88145 13.0991 2.13504 17.6524 0.395259C19.0332 -0.132404 20.3918 -0.132404 21.7706 0.395259H21.7726ZM6.99824 32.7402L7.00258 32.745V32.7493L7.07077 32.8309L7.18074 32.9566L7.27494 33.0607L7.3455 33.1379C7.62457 33.4379 7.92137 33.7252 8.24024 34.0079C9.05813 29.581 10.6257 24.1869 12.8969 19.6171C15.1857 15.0069 18.1936 11.2292 21.8695 10.101C23.05 9.73892 24.1691 9.54018 25.251 9.3481C27.4516 8.95733 29.4965 8.59301 31.5103 6.94156L20.7414 2.82167C20.0513 2.55896 19.3741 2.55896 18.6835 2.82167C14.0951 4.57474 9.50668 6.32556 4.91826 8.07859C3.3156 8.67913 2.6073 9.74333 2.62503 11.1828C3.14611 15.7157 3.66719 20.2505 4.18827 24.7833C4.51148 28.0576 5.20402 30.2212 6.38453 31.9365V31.9413V31.9456V31.9499L6.45706 32.0536V32.0579V32.0627L6.52998 32.164V32.1687V32.173V32.1774L6.60014 32.2743V32.2791V32.2834V32.2877V32.2921L6.68804 32.4072V32.4115V32.4158V32.4202V32.4245H6.69237L6.76963 32.5219L6.7716 32.5286V32.5329L6.84649 32.6255V32.6299V32.6342V32.6389V32.6433L6.92769 32.7426V32.7469L6.99824 32.7402ZM10.8677 35.7631C10.8346 35.9507 10.8433 35.9593 11.0017 36.063C13.2354 37.547 16.0982 39.1962 19.7127 41.722C30.1319 34.447 34.2895 34.4229 35.2371 24.7833L36.7034 12.0174L36.7077 11.9755V11.9622C36.7408 11.684 36.7716 11.4191 36.8003 11.1696C36.809 10.1319 36.4397 9.28851 35.6261 8.67693C35.0369 9.44968 34.2387 9.99059 32.9856 10.7611C30.5959 12.2317 27.5529 13.2427 23.9582 13.9206C21.2077 14.4394 19.7521 15.7819 19.3918 17.5304C19.3477 17.7511 19.3236 17.822 19.6094 17.8197C20.57 17.813 23.2018 16.018 23.2018 16.018L21.2956 18.1508C20.5503 18.0538 19.5124 18.0317 19.2464 18.3916C18.2681 19.714 17.9074 20.8819 18.5408 21.8027C19.1147 20.1775 20.7789 19.7073 23.0217 19.8488C25.0685 20.1578 26.8032 19.7495 28.2474 18.6632C27.2605 25.993 15.2977 19.6632 11.3754 33.6456C11.3691 33.6653 11.3624 33.6874 11.3581 33.7075L11.349 33.7363C11.3163 33.8529 11.2855 33.9767 11.2548 34.0981C11.092 34.7055 11.0151 34.9503 10.8677 35.7674V35.7631ZM7.00258 32.745V32.7402L7.00692 32.745H7.00258Z" fill="#017B83"/>
</g>
</svg>
