<svg width="100%" height="55" viewBox="0 0 165 45" fill="none" xmlns="http://www.w3.org/2000/svg">
<mask id="mask0_874_12698" style="mask-type:luminance" maskUnits="userSpaceOnUse" x="0" y="0" width="165" height="45">
<path d="M164.372 0H0.294922V44.9343H164.372V0Z" fill="white"/>
</mask>
<g mask="url(#mask0_874_12698)">
<path fill-rule="evenodd" clip-rule="evenodd" d="M56.4167 21.6285V23.5161H50.0456V27.8811H47.79V22.3593C47.8012 20.7716 47.9501 19.7294 48.2376 19.2328C48.6004 18.5351 49.1258 18.0361 49.8141 17.7405C50.5023 17.4445 51.4708 17.2967 52.7199 17.2967H56.4167V19.1843H53.0074C51.9518 19.2064 51.2728 19.2903 50.9742 19.4381C50.3773 19.6809 50.068 20.2221 50.0456 21.0566V21.6285H56.4167ZM58.6566 27.8811L63.0747 17.2967H65.6844L70.1025 27.8811H67.4457L66.4058 25.4369H62.3554L61.3154 27.8811H58.659H58.6566ZM64.3862 19.8512L62.8652 23.5492H65.9072L64.3862 19.8512ZM72.8523 27.8811V17.2967H75.1262V27.8811H72.8523ZM81.1583 23.865V27.8811H78.8848V17.2967H84.1021C85.5964 17.2967 86.6364 17.4863 87.2244 17.8682C87.6296 18.1224 87.9414 18.4579 88.1593 18.8753C88.3777 19.2923 88.4867 19.7515 88.4867 20.2485C88.4867 21.2529 88.2308 22.0325 87.7186 22.582C87.398 22.9111 86.9769 23.1582 86.4539 23.3285C86.8703 23.4763 87.1841 23.6332 87.3981 23.7964C87.6116 23.96 87.8033 24.2004 87.9745 24.5185C88.1015 24.7723 88.1953 25.0151 88.2552 25.2493C88.3131 25.481 88.3598 25.8255 88.3909 26.2804C88.4556 27.0419 88.5402 27.5764 88.6472 27.883H86.1018C86.0264 27.6402 85.9481 27.1369 85.8615 26.3754C85.808 25.7617 85.699 25.291 85.5341 24.9623C85.3692 24.6332 85.1197 24.375 84.7904 24.185C84.374 23.9619 83.7704 23.8559 82.9823 23.8669H81.1583V23.865ZM81.1583 21.9773H84.3429C84.877 21.9773 85.2559 21.8977 85.4782 21.7389C85.8192 21.5071 85.9904 21.0983 85.9904 20.5177C85.9904 19.8733 85.7345 19.4602 85.2223 19.2793C85.0399 19.215 84.7481 19.1843 84.3429 19.1843H81.1583V21.9773ZM94.8111 23.2465L90.8584 17.2967H93.5148L95.9644 21.4385L98.5409 17.2967H101.246L97.0846 23.3261V27.8811H94.8111V23.2465ZM106.239 24.1827V27.8811H103.965V17.2967H109.294C110.265 17.2967 110.96 17.3649 111.374 17.502C112.077 17.7338 112.632 18.217 113.037 18.9458C113.336 19.4957 113.485 20.094 113.485 20.7385C113.485 21.2773 113.387 21.7897 113.188 22.271C112.99 22.7522 112.717 23.1472 112.365 23.4519C112.044 23.7282 111.706 23.9178 111.349 24.0238C110.991 24.1298 110.503 24.1827 109.884 24.1827H106.235H106.239ZM106.239 22.295H109.327C109.882 22.295 110.271 22.2111 110.497 22.0412C110.828 21.7763 110.993 21.3171 110.993 20.6612C110.993 19.9525 110.741 19.4977 110.24 19.297C110.06 19.2217 109.77 19.1863 109.376 19.1863H106.239V22.2974V22.295ZM118.802 23.8669V27.883H116.529V17.2986H121.746C123.24 17.2986 124.28 17.4886 124.868 17.8706C125.273 18.1244 125.585 18.4602 125.804 18.8773C126.022 19.2947 126.131 19.7539 126.131 20.2505C126.131 21.2552 125.875 22.0345 125.362 22.5843C125.042 22.9135 124.621 23.1606 124.098 23.3305C124.514 23.4787 124.828 23.6352 125.042 23.7987C125.256 23.9619 125.447 24.2028 125.619 24.5208C125.746 24.7747 125.839 25.0175 125.899 25.2516C125.957 25.4834 126.004 25.8279 126.035 26.2823C126.099 27.0443 126.184 27.5783 126.291 27.8854H123.746C123.67 27.6426 123.592 27.1393 123.505 26.3773C123.452 25.7636 123.343 25.2934 123.178 24.9643C123.013 24.6355 122.764 24.377 122.434 24.1874C122.018 23.9643 121.414 23.8583 120.626 23.8693H118.802V23.8669ZM118.802 21.9793H121.987C122.521 21.9793 122.9 21.9001 123.123 21.7408C123.463 21.5091 123.635 21.1007 123.635 20.5201C123.635 19.8753 123.378 19.4626 122.866 19.2813C122.684 19.2174 122.392 19.1863 121.987 19.1863H118.802V21.9793ZM134.247 17.2348C135.314 17.2348 136.254 17.4137 137.064 17.7736C138.015 18.206 138.681 18.9324 139.064 19.9482C139.363 20.7408 139.511 21.6726 139.511 22.7412C139.511 23.8098 139.329 24.7569 138.968 25.5496C138.509 26.4901 137.806 27.1523 136.855 27.5322C136.151 27.8081 135.341 27.9449 134.421 27.9449C133.217 27.9449 132.17 27.7222 131.284 27.2784C130.538 26.9075 129.965 26.3265 129.571 25.5319C129.177 24.7392 128.979 23.7767 128.979 22.6439C128.979 20.6238 129.486 19.1843 130.5 18.3278C131.353 17.6077 132.602 17.2435 134.245 17.2324L134.247 17.2348ZM134.263 19.0121C133.217 19.0121 132.47 19.3499 132.023 20.0278C131.66 20.5576 131.48 21.4078 131.48 22.582C131.48 23.8185 131.704 24.7305 132.152 25.3111C132.599 25.8831 133.31 26.1676 134.281 26.1676C135.252 26.1676 135.911 25.8764 136.354 25.2958C136.797 24.7128 137.018 23.8141 137.018 22.5977C137.018 21.487 136.837 20.6392 136.474 20.0586C136.058 19.3719 135.323 19.0207 134.265 19.0121H134.263ZM147.403 17.2348C148.47 17.2348 149.41 17.4137 150.22 17.7736C151.171 18.206 151.837 18.9324 152.22 19.9482C152.518 20.7408 152.668 21.6726 152.668 22.7412C152.668 23.8098 152.485 24.7569 152.124 25.5496C151.666 26.4901 150.962 27.1523 150.011 27.5322C149.307 27.8081 148.497 27.9449 147.577 27.9449C146.372 27.9449 145.326 27.7222 144.439 27.2784C143.694 26.9075 143.121 26.3265 142.727 25.5319C142.333 24.7392 142.135 23.7767 142.135 22.6439C142.135 20.6238 142.642 19.1843 143.656 18.3278C144.508 17.6077 145.758 17.2435 147.401 17.2324L147.403 17.2348ZM147.419 19.0121C146.372 19.0121 145.626 19.3499 145.179 20.0278C144.816 20.5576 144.635 21.4078 144.635 22.582C144.635 23.8185 144.861 24.7305 145.308 25.3111C145.756 25.8831 146.466 26.1676 147.437 26.1676C148.408 26.1676 149.067 25.8764 149.51 25.2958C149.953 24.7128 150.174 23.8141 150.174 22.5977C150.174 21.487 149.993 20.6392 149.63 20.0586C149.214 19.3719 148.479 19.0207 147.421 19.0121H147.419ZM164.369 21.6305V23.5181H157.999V27.883H155.74V22.3612C155.751 20.774 155.901 19.7318 156.188 19.2352C156.551 18.5375 157.076 18.0385 157.765 17.7425C158.453 17.4468 159.421 17.2986 160.671 17.2986H164.367V19.1863H160.958C159.902 19.2087 159.223 19.2923 158.925 19.4405C158.328 19.6833 158.019 20.2241 157.996 21.0585V21.6305H164.367H164.369Z" fill="#BAC3DA"/>
<path fill-rule="evenodd" clip-rule="evenodd" d="M22.3466 0.395259C26.9607 2.13504 31.5724 3.87924 36.1885 5.61241C38.7004 6.55516 40.2613 8.51575 40.2258 11.216V11.3506L40.2078 11.4853C39.6825 16.0093 39.1036 20.5287 38.6289 25.0569C38.2884 28.3004 37.5515 31.3958 35.4939 34.0165C33.9685 35.9593 31.9309 37.3748 29.8646 38.6972C27.1567 40.4303 24.4309 42.0574 21.7765 43.8855L20.2579 44.932L18.7393 43.8855C16.0849 42.0554 13.3615 40.4303 10.6516 38.6972C8.5853 37.3748 6.54971 35.9593 5.02232 34.0165C2.96477 31.3958 2.2277 28.3004 1.88697 25.0569C1.4149 20.5287 0.838155 16.0093 0.31263 11.4853L0.29706 11.3506V11.216C0.259214 8.51575 1.82018 6.55516 4.33407 5.61241C8.95018 3.88145 13.5619 2.13504 18.1736 0.395259C19.5721 -0.132404 20.9482 -0.132404 22.3446 0.395259H22.3466ZM7.38287 32.7402L7.38726 32.745V32.7493L7.45632 32.8309L7.5677 32.9566L7.66312 33.0607L7.73458 33.1379C8.01722 33.4379 8.31783 33.7252 8.64079 34.0079C9.46916 29.581 11.0568 24.1869 13.3571 19.6171C15.6753 15.0069 18.7217 11.2292 22.4448 10.101C23.6405 9.73892 24.7738 9.54018 25.8697 9.3481C28.0985 8.95733 30.1696 8.59301 32.2092 6.94156L21.3023 2.82167C20.6032 2.55896 19.9174 2.55896 19.218 2.82167C14.5707 4.57474 9.92346 6.32556 5.27621 8.07859C3.65301 8.67913 2.93563 9.74333 2.95359 11.1828C3.48135 15.7157 4.00911 20.2505 4.53687 24.7833C4.86423 28.0576 5.56565 30.2212 6.76129 31.9365V31.9413V31.9456V31.9499L6.83475 32.0536V32.0579V32.0627L6.9086 32.164V32.1687V32.173V32.1774L6.97966 32.2743V32.2791V32.2834V32.2877V32.2921L7.06869 32.4072V32.4115V32.4158V32.4202V32.4245H7.07308L7.15132 32.5219L7.15332 32.5286V32.5329L7.22917 32.6255V32.6299V32.6342V32.6389V32.6433L7.31141 32.7426V32.7469L7.38287 32.7402ZM11.302 35.7631C11.2684 35.9507 11.2772 35.9593 11.4377 36.063C13.7 37.547 16.5995 39.1962 20.2603 41.722C30.8131 34.447 35.024 34.4229 35.9838 24.7833L37.4688 12.0174L37.4732 11.9755V11.9622C37.5068 11.684 37.5379 11.4191 37.567 11.1696C37.5758 10.1319 37.2018 9.28851 36.3778 8.67693C35.7809 9.44968 34.9725 9.99059 33.7034 10.7611C31.283 12.2317 28.2011 13.2427 24.5602 13.9206C21.7745 14.4394 20.3002 15.7819 19.9354 17.5304C19.8906 17.7511 19.8663 17.822 20.1557 17.8197C21.1286 17.813 23.7942 16.018 23.7942 16.018L21.8636 18.1508C21.1086 18.0538 20.0575 18.0317 19.788 18.3916C18.7972 19.714 18.4319 20.8819 19.0734 21.8027C19.6547 20.1775 21.3402 19.7073 23.6117 19.8488C25.6848 20.1578 27.4418 19.7495 28.9045 18.6632C27.9049 25.993 15.7887 19.6632 11.8161 33.6456C11.8098 33.6653 11.803 33.6874 11.7986 33.7075L11.7894 33.7363C11.7563 33.8529 11.7251 33.9767 11.694 34.0981C11.5291 34.7055 11.4513 34.9503 11.302 35.7674V35.7631ZM7.38726 32.745V32.7402L7.39165 32.745H7.38726Z" fill="#BAC3DA"/>
</g>
</svg>
