<svg width="72" height="80" viewBox="0 0 72 80" fill="none" xmlns="http://www.w3.org/2000/svg">
<path fill-rule="evenodd" clip-rule="evenodd" d="M8.23449 72.2897V80H5.77787V77.2414H2.40173V80H0V72.3034H2.40173V74.9241H5.77787V72.2897H8.23449ZM33.9673 72.2897V74.4828H27.5581V77.8069H33.9261V80H25.1564V72.3034H33.9261L33.9673 72.2897ZM65.6289 72.2897L68.9776 75.6138V72.2897H71.3656V80H68.9502L65.5877 76.5793V80H63.1311V72.2897H65.6289ZM46.2504 72.2897V74.9241L43.9173 77.2414H46.2504V80H43.6977V77.2414H39.951V80H37.4395V72.3034H39.951V74.9241H43.6977V72.2897H46.2504ZM20.5862 72.2897H20.998V80H18.6649V78.331H15.2613V80H12.8733V72.3034H20.5862V72.2897ZM58.4375 72.2897V74.4828H52.7008V75.0621H58.4786V77.2414H52.7008V77.8207H58.4786V80H50.2441V72.3034H58.4786L58.4375 72.2897ZM18.6649 74.4828H15.2613V76.0552H18.6649V74.4828ZM4.11725 0V31.8759H8.23449V0H12.3517V31.8759H67.2484V27.2552H16.9631V0H21.0803V23.0483H67.2484V18.9103H24.5662V0H28.6835V14.7172H42.092V0H46.2092V14.7172H50.3265V0H54.4437V14.7172H59.1237V0H63.2409V14.7172H67.3582V0H71.4754V67.5862H67.2484V36.1517H62.5959V67.5862H58.4786V36.1517H4.11725V40.2897H54.4026V67.5862H50.2853V44.5103H4.11725V48.6483H46.7994V67.5862H42.6821V52.8414H29.2462V67.5862H25.1289V52.8414H21.0117V67.5862H16.8944V52.8414H12.3517V67.5862H8.23449V52.8414H4.11725V67.5862H0V0H4.11725Z" fill="#77DAA9"/>
</svg>
