<svg width="100%" height="55" viewBox="0 0 163 25" fill="none" xmlns="http://www.w3.org/2000/svg">
<g clip-path="url(#clip0_757_13362)">
<path d="M22.9049 24.9202V18.4333H15.7082C13.7511 18.4333 11.9383 19.4418 10.9359 21.0882L8.60278 24.9202H22.9049Z" fill="#BAC3DA"/>
<path d="M0 0V6.48687H18.9553L22.9049 0H0Z" fill="#BAC3DA"/>
<path d="M9.07195 10.138L0.0209961 24.9203H7.73219L18.5555 7.23535H14.2974C12.1555 7.23535 10.1713 8.33758 9.07195 10.138Z" fill="#BAC3DA"/>
<path d="M39.3106 18.6958C35.4331 18.6958 32.5798 15.9292 32.5798 12.2166C32.5798 8.53965 35.4514 5.73732 39.3289 5.73732C43.2064 5.73732 46.078 8.57535 46.078 12.2166C46.078 15.8935 43.1882 18.6958 39.3106 18.6958ZM39.3289 16.429C41.7798 16.429 43.5357 14.6441 43.5357 12.2166C43.5357 9.82479 41.7798 8.00417 39.3289 8.00417C36.8597 8.00417 35.1039 9.82479 35.1039 12.2166C35.1039 14.6441 36.8597 16.429 39.3289 16.429ZM48.6745 22.5691V9.07513H51.0157V10.271H51.1437C51.3998 9.87834 52.2777 8.84309 54.0336 8.84309C56.7222 8.84309 58.5695 10.8065 58.5695 13.7338C58.5695 16.661 56.7405 18.6958 54.1067 18.6958C52.4057 18.6958 51.4912 17.7677 51.1803 17.2501H51.0523V22.5691H48.6745ZM53.5763 16.5896C55.1127 16.5896 56.1552 15.4294 56.1552 13.7695C56.1552 12.0559 55.1127 10.9493 53.558 10.9493C51.9851 10.9493 50.9974 12.1809 50.9974 13.7695C50.9974 15.5187 52.0948 16.5896 53.5763 16.5896ZM65.3728 18.6958C62.5378 18.6958 60.5259 16.6253 60.5259 13.823C60.5259 10.86 62.5561 8.84309 65.3728 8.84309C68.4639 8.84309 70.1466 11.0742 70.1466 13.7159V14.4477H62.8305C62.9037 15.8757 63.9096 16.8395 65.446 16.8395C66.6166 16.8395 67.5128 16.3041 67.842 15.5365H70.0551C69.5796 17.4464 67.8603 18.6958 65.3728 18.6958ZM62.8671 12.8056H67.8786C67.7689 11.5383 66.7629 10.6994 65.3728 10.6994C64.0376 10.6994 63.0134 11.6276 62.8671 12.8056ZM72.7065 18.4638V9.07513H74.9745V10.2175H75.1025C75.4866 9.52136 76.4377 8.84309 77.8095 8.84309C79.9677 8.84309 81.2846 10.3246 81.2846 12.3237V18.4638H78.9069V12.9306C78.9069 11.7882 78.157 11.0207 77.0596 11.0207C75.9073 11.0207 75.0843 11.9131 75.0843 13.0912V18.4638H72.7065ZM83.6434 18.4638V16.3398L90.301 8.14697V8.02202H83.8812V5.96936H93.3372V8.07557L86.6796 16.2684V16.4111H93.3738V18.4638H83.6434ZM99.8113 18.6958C96.9763 18.6958 94.9644 16.6253 94.9644 13.823C94.9644 10.86 96.9946 8.84309 99.8113 8.84309C102.902 8.84309 104.585 11.0742 104.585 13.7159V14.4477H97.2689C97.3421 15.8757 98.3481 16.8395 99.8844 16.8395C101.055 16.8395 101.951 16.3041 102.28 15.5365H104.494C104.018 17.4464 102.299 18.6958 99.8113 18.6958ZM97.3055 12.8056H102.317C102.207 11.5383 101.201 10.6994 99.8113 10.6994C98.4761 10.6994 97.4518 11.6276 97.3055 12.8056ZM107.145 22.5691V9.07513H109.486V10.271H109.614C109.87 9.87834 110.748 8.84309 112.504 8.84309C115.193 8.84309 117.04 10.8065 117.04 13.7338C117.04 16.661 115.211 18.6958 112.577 18.6958C110.876 18.6958 109.962 17.7677 109.651 17.2501H109.523V22.5691H107.145ZM112.047 16.5896C113.583 16.5896 114.626 15.4294 114.626 13.7695C114.626 12.0559 113.583 10.9493 112.028 10.9493C110.455 10.9493 109.468 12.1809 109.468 13.7695C109.468 15.5187 110.565 16.5896 112.047 16.5896ZM119.6 22.5691V9.07513H121.941V10.271H122.069C122.325 9.87834 123.203 8.84309 124.959 8.84309C127.648 8.84309 129.495 10.8065 129.495 13.7338C129.495 16.661 127.666 18.6958 125.032 18.6958C123.331 18.6958 122.417 17.7677 122.106 17.2501H121.978V22.5691H119.6ZM124.502 16.5896C126.038 16.5896 127.081 15.4294 127.081 13.7695C127.081 12.0559 126.038 10.9493 124.483 10.9493C122.91 10.9493 121.923 12.1809 121.923 13.7695C121.923 15.5187 123.02 16.5896 124.502 16.5896ZM136.298 18.6958C133.463 18.6958 131.451 16.6253 131.451 13.823C131.451 10.86 133.482 8.84309 136.298 8.84309C139.389 8.84309 141.072 11.0742 141.072 13.7159V14.4477H133.756C133.829 15.8757 134.835 16.8395 136.371 16.8395C137.542 16.8395 138.438 16.3041 138.767 15.5365H140.981C140.505 17.4464 138.786 18.6958 136.298 18.6958ZM133.792 12.8056H138.804C138.694 11.5383 137.688 10.6994 136.298 10.6994C134.963 10.6994 133.939 11.6276 133.792 12.8056ZM145.973 18.4638C144.29 18.4638 143.339 17.4821 143.339 15.8221V5.0769H145.717V15.6079C145.717 16.1434 145.991 16.429 146.485 16.429H146.869V18.4638H145.973ZM150.344 7.82568C149.484 7.82568 148.881 7.30805 148.881 6.46914C148.881 5.66593 149.484 5.13045 150.344 5.13045C151.203 5.13045 151.807 5.66593 151.807 6.46914C151.807 7.30805 151.203 7.82568 150.344 7.82568ZM149.155 18.4638V9.07513H151.533V18.4638H149.155ZM154.422 18.4638V9.07513H156.69V10.2175H156.818C157.202 9.52136 158.153 8.84309 159.525 8.84309C161.683 8.84309 163 10.3246 163 12.3237V18.4638H160.622V12.9306C160.622 11.7882 159.872 11.0207 158.775 11.0207C157.623 11.0207 156.8 11.9131 156.8 13.0912V18.4638H154.422Z" fill="#BAC3DA"/>
</g>
<defs>
<clipPath id="clip0_757_13362">
<rect width="163" height="25" fill="white"/>
</clipPath>
</defs>
</svg>
