<svg width="100%" height="55" viewBox="0 0 163 26" fill="none" xmlns="http://www.w3.org/2000/svg">
<g clip-path="url(#clip0_788_13965)">
<path d="M22.9049 25.3876V18.7791H15.7082C13.7511 18.7791 11.9383 19.8064 10.9359 21.4837L8.60278 25.3876H22.9049Z" fill="#63D2F9"/>
<path d="M0 0V6.6085H18.9553L22.9049 0H0Z" fill="#4E5EE4"/>
<path d="M9.07182 10.3281L0.020874 25.3876H7.73207L18.5554 7.37109H14.2972C12.1554 7.37109 10.1712 8.49399 9.07182 10.3281Z" fill="#63B0F9"/>
<path d="M39.3108 19.0464C35.4332 19.0464 32.58 16.2279 32.58 12.4457C32.58 8.69979 35.4515 5.84492 39.329 5.84492C43.2066 5.84492 46.0781 8.73616 46.0781 12.4457C46.0781 16.1915 43.1883 19.0464 39.3108 19.0464ZM39.329 16.7371C41.7799 16.7371 43.5358 14.9187 43.5358 12.4457C43.5358 10.009 41.7799 8.15427 39.329 8.15427C36.8599 8.15427 35.104 10.009 35.104 12.4457C35.104 14.9187 36.8599 16.7371 39.329 16.7371ZM48.6747 22.9923V9.24531H51.0158V10.4636H51.1438C51.3999 10.0636 52.2778 9.00892 54.0337 9.00892C56.7224 9.00892 58.5697 11.0091 58.5697 13.9913C58.5697 16.9735 56.7407 19.0464 54.1069 19.0464C52.4059 19.0464 51.4914 18.1009 51.1804 17.5735H51.0524V22.9923H48.6747ZM53.5764 16.9007C55.1128 16.9007 56.1554 15.7188 56.1554 14.0277C56.1554 12.282 55.1128 11.1546 53.5582 11.1546C51.9852 11.1546 50.9975 12.4093 50.9975 14.0277C50.9975 15.8097 52.0949 16.9007 53.5764 16.9007ZM65.373 19.0464C62.538 19.0464 60.5261 16.9371 60.5261 14.0822C60.5261 11.0637 62.5563 9.00892 65.373 9.00892C68.464 9.00892 70.1467 11.2819 70.1467 13.9731V14.7187H62.8306C62.9038 16.1734 63.9097 17.1553 65.4461 17.1553C66.6167 17.1553 67.5129 16.6098 67.8421 15.8279H70.0552C69.5797 17.7735 67.8604 19.0464 65.373 19.0464ZM62.8672 13.0457H67.8787C67.769 11.7547 66.763 10.9 65.373 10.9C64.0378 10.9 63.0135 11.8456 62.8672 13.0457ZM72.7067 18.81V9.24531H74.9746V10.4091H75.1027C75.4868 9.6999 76.4379 9.00892 77.8096 9.00892C79.9679 9.00892 81.2848 10.5182 81.2848 12.5548V18.81H78.907V13.173C78.907 12.0093 78.1571 11.2274 77.0597 11.2274C75.9074 11.2274 75.0844 12.1365 75.0844 13.3367V18.81H72.7067ZM83.6435 18.81V16.6461L90.3012 8.29975V8.17246H83.8813V6.08131H93.3373V8.22701L86.6797 16.5734V16.7189H93.3739V18.81H83.6435ZM99.8114 19.0464C96.9764 19.0464 94.9645 16.9371 94.9645 14.0822C94.9645 11.0637 96.9947 9.00892 99.8114 9.00892C102.902 9.00892 104.585 11.2819 104.585 13.9731V14.7187H97.2691C97.3422 16.1734 98.3482 17.1553 99.8846 17.1553C101.055 17.1553 101.951 16.6098 102.281 15.8279H104.494C104.018 17.7735 102.299 19.0464 99.8114 19.0464ZM97.3056 13.0457H102.317C102.207 11.7547 101.201 10.9 99.8114 10.9C98.4762 10.9 97.452 11.8456 97.3056 13.0457ZM107.145 22.9923V9.24531H109.486V10.4636H109.614C109.87 10.0636 110.748 9.00892 112.504 9.00892C115.193 9.00892 117.04 11.0091 117.04 13.9913C117.04 16.9735 115.211 19.0464 112.577 19.0464C110.876 19.0464 109.962 18.1009 109.651 17.5735H109.523V22.9923H107.145ZM112.047 16.9007C113.583 16.9007 114.626 15.7188 114.626 14.0277C114.626 12.282 113.583 11.1546 112.029 11.1546C110.456 11.1546 109.468 12.4093 109.468 14.0277C109.468 15.8097 110.565 16.9007 112.047 16.9007ZM119.6 22.9923V9.24531H121.941V10.4636H122.069C122.325 10.0636 123.203 9.00892 124.959 9.00892C127.648 9.00892 129.495 11.0091 129.495 13.9913C129.495 16.9735 127.666 19.0464 125.032 19.0464C123.331 19.0464 122.417 18.1009 122.106 17.5735H121.978V22.9923H119.6ZM124.502 16.9007C126.038 16.9007 127.081 15.7188 127.081 14.0277C127.081 12.282 126.038 11.1546 124.484 11.1546C122.911 11.1546 121.923 12.4093 121.923 14.0277C121.923 15.8097 123.02 16.9007 124.502 16.9007ZM136.298 19.0464C133.463 19.0464 131.451 16.9371 131.451 14.0822C131.451 11.0637 133.482 9.00892 136.298 9.00892C139.389 9.00892 141.072 11.2819 141.072 13.9731V14.7187H133.756C133.829 16.1734 134.835 17.1553 136.372 17.1553C137.542 17.1553 138.438 16.6098 138.768 15.8279H140.981C140.505 17.7735 138.786 19.0464 136.298 19.0464ZM133.793 13.0457H138.804C138.694 11.7547 137.688 10.9 136.298 10.9C134.963 10.9 133.939 11.8456 133.793 13.0457ZM145.973 18.81C144.29 18.81 143.339 17.8099 143.339 16.1188V5.17212H145.717V15.9006C145.717 16.4461 145.991 16.7371 146.485 16.7371H146.869V18.81H145.973ZM150.344 7.97244C149.484 7.97244 148.881 7.4451 148.881 6.59046C148.881 5.77219 149.484 5.22667 150.344 5.22667C151.204 5.22667 151.807 5.77219 151.807 6.59046C151.807 7.4451 151.204 7.97244 150.344 7.97244ZM149.155 18.81V9.24531H151.533V18.81H149.155ZM154.422 18.81V9.24531H156.69V10.4091H156.818C157.202 9.6999 158.153 9.00892 159.525 9.00892C161.683 9.00892 163 10.5182 163 12.5548V18.81H160.622V13.173C160.622 12.0093 159.872 11.2274 158.775 11.2274C157.623 11.2274 156.8 12.1365 156.8 13.3367V18.81H154.422Z" fill="white"/>
</g>
<defs>
<clipPath id="clip0_788_13965">
<rect width="163" height="25.4688" fill="white"/>
</clipPath>
</defs>
</svg>
