<svg width="100%" height="55" viewBox="0 0 200 41" fill="none" xmlns="http://www.w3.org/2000/svg">
<path fill-rule="evenodd" clip-rule="evenodd" d="M27.8478 7.22331C26.6516 8.10344 26.432 8.27723 25.772 8.86949C24.7047 9.82638 23.645 10.9224 22.8363 11.9054C22.6161 12.1725 22.3789 12.4524 22.309 12.527C22.2392 12.6011 21.9087 13.0297 21.575 13.4796C20.8382 14.4723 20.875 14.4483 20.3638 14.2638C19.691 14.0218 19.6692 14.0117 17.822 13.1091C15.4205 11.9358 14.7306 11.786 13.5008 12.1688C12.4544 12.4945 11.7763 13.1129 11.1579 14.3059C10.8215 14.9547 10.6978 15.0864 10.2218 15.2991C8.62305 16.0145 6.60531 17.0204 6.00452 17.4026C5.47409 17.7401 5.33762 17.7486 5.06788 17.4613C4.40205 16.7528 2.40137 17.593 2.40137 18.5818C2.40137 19.9609 3.60668 19.9727 4.87917 18.6058C5.44744 17.9954 5.50128 17.9619 6.53281 17.5706C11.0251 15.8679 12.1414 15.7367 13.1575 16.7928C13.455 17.102 13.5173 17.2464 13.8836 18.4816C13.9347 18.6527 14.0056 18.8729 14.0419 18.9705C14.0781 19.068 14.2178 19.4481 14.3522 19.8143C15.2403 22.2367 16.6162 23.6942 18.5273 24.2368C20.8772 24.9043 21.648 25.2449 22.0436 25.7913C22.5596 26.5035 22.3389 27.3544 21.3154 28.5943C21.1837 28.7537 21.2727 28.8198 21.4726 28.7111C21.5627 28.662 22.2163 28.3342 22.9253 27.9823C25.8717 26.5206 27.0765 25.6298 26.989 24.9768C26.8931 24.2608 26.1046 22.5054 25.4468 21.541C25.0763 20.9994 25.1131 20.8331 25.6185 20.7568C26.4309 20.6342 28.7344 19.9828 29.2014 19.7434C29.292 19.6971 29.6667 19.5078 30.033 19.3234C30.8811 18.8964 31.5336 18.4832 32.2224 17.9368C32.5225 17.699 32.8322 17.5045 32.9111 17.5045C32.9895 17.5045 33.054 17.4442 33.054 17.3712C33.054 17.2976 33.094 17.2379 33.1425 17.2379C33.2011 17.2379 33.2315 15.443 33.2315 12.0307V6.82349L33.0081 6.87947C32.8088 6.92958 31.5475 7.72974 30.0959 8.72662C29.4503 9.17068 29.4204 9.15576 29.1161 8.2527C28.7296 7.10603 28.592 6.75366 28.5329 6.75686C28.5025 6.75899 28.1943 6.96849 27.8478 7.22331Z" fill="#121620"/>
<path fill-rule="evenodd" clip-rule="evenodd" d="M15.2403 0.0900674C15.21 0.139112 14.9903 0.179093 14.7515 0.179093C14.5132 0.179093 14.293 0.219075 14.2632 0.268119C14.2328 0.31663 14.0308 0.356612 13.8133 0.356612C13.5222 0.356612 13.4188 0.391796 13.4188 0.489884C13.4188 0.590638 13.3106 0.623156 12.9747 0.623156C12.7306 0.623156 12.5307 0.663138 12.5307 0.712182C12.5307 0.761226 12.4091 0.801208 12.2609 0.801208C12.1037 0.801208 11.9704 0.856649 11.9405 0.93448C11.9091 1.01658 11.7742 1.06775 11.5882 1.06775C11.4224 1.06775 11.2864 1.10773 11.2864 1.15625C11.2864 1.20529 11.1468 1.24527 10.9756 1.24527C10.8045 1.24527 10.6648 1.28525 10.6648 1.3343C10.6648 1.38281 10.5236 1.42279 10.3509 1.42279C10.1541 1.42279 10.0182 1.47237 9.98622 1.55606C9.95424 1.63869 9.81937 1.68933 9.63332 1.68933C9.46753 1.68933 9.33212 1.72505 9.33212 1.76823C9.33212 1.81194 9.19192 1.87378 9.0208 1.90577C8.84968 1.93775 8.71001 2.00226 8.71001 2.04917C8.71001 2.09555 8.61032 2.13393 8.48771 2.13393C8.36563 2.13393 8.26595 2.17391 8.26595 2.22242C8.26595 2.27147 8.12574 2.31145 7.95462 2.31145C7.7835 2.31145 7.64383 2.34717 7.64383 2.39035C7.64383 2.43406 7.50416 2.49537 7.33304 2.52788C7.16192 2.55987 7.02172 2.62437 7.02172 2.67075C7.02172 2.71766 6.92203 2.75551 6.79995 2.75551C6.67787 2.75551 6.57765 2.79549 6.57765 2.84454C6.57765 2.89358 6.48276 2.93356 6.36655 2.93356C6.25034 2.93356 6.10534 2.99327 6.04456 3.06684C5.98379 3.13987 5.84199 3.20011 5.73004 3.20011C5.61809 3.20011 5.51307 3.23689 5.49655 3.28274C5.48056 3.32805 5.34728 3.37816 5.20068 3.39362C5.05408 3.40908 4.8787 3.47412 4.81153 3.53809C4.74383 3.60206 4.63401 3.63351 4.56737 3.60739C4.49807 3.58127 4.4453 3.61752 4.4453 3.69162C4.4453 3.76945 4.36053 3.82169 4.23313 3.82169C4.11691 3.82169 3.90954 3.8798 3.77307 3.9507C3.6366 4.0216 3.49107 4.05838 3.45002 4.03279C3.40844 4.00721 3.38552 4.03919 3.39938 4.10423C3.41697 4.18952 3.27197 4.22897 2.86842 4.24816C2.56296 4.26256 2.31294 4.31267 2.31294 4.35904C2.31294 4.40596 2.16314 4.44487 1.97976 4.44647C1.79638 4.44807 1.57088 4.50671 1.47812 4.57708C1.38537 4.64745 1.27555 4.6837 1.23343 4.65757C1.19185 4.63199 1.15774 4.65438 1.15774 4.70768C1.15774 4.76099 1.0879 4.83136 1.00261 4.86388C0.812294 4.93585 0.624647 5.1139 0.624647 5.22212C0.624647 5.26636 0.524959 5.35592 0.402882 5.42096C0.263213 5.49559 0.180584 5.61713 0.180584 5.74721C0.180584 5.86129 0.140602 5.95405 0.091558 5.95405C-0.0305193 5.95405 -0.0305193 16.2293 0.091558 16.305C0.1454 16.3381 0.180584 16.9847 0.180584 17.9464C0.180584 18.8495 0.216301 19.5462 0.263746 19.5627C0.309058 19.5793 0.356503 20.0463 0.369297 20.6012C0.385823 21.3347 0.423672 21.6221 0.508433 21.6546C0.590529 21.686 0.624647 21.9009 0.624647 22.3828C0.624647 22.7586 0.662496 23.1046 0.708342 23.151C0.754721 23.1973 0.801633 23.4436 0.813361 23.6979C0.826155 23.9842 0.878931 24.1782 0.951431 24.2065C1.01807 24.2321 1.06924 24.3867 1.06924 24.5653C1.06924 24.7374 1.10923 24.8787 1.15774 24.8787C1.20678 24.8787 1.24676 24.9555 1.24676 25.0493C1.24676 25.2417 1.52237 25.7658 1.62419 25.7668C1.66097 25.7674 1.69083 25.8239 1.69083 25.8932C1.69083 26.052 1.97923 26.5659 2.06879 26.5665C2.10504 26.567 2.13542 26.6096 2.13542 26.6624C2.13542 26.7147 2.185 26.8133 2.2463 26.881C2.51338 27.179 2.58268 27.2776 2.52404 27.2776C2.48993 27.2776 2.6184 27.4279 2.80925 27.6119C3.00062 27.7958 3.21706 28.0655 3.29009 28.2116C3.42816 28.4861 3.59822 28.6994 3.67925 28.6994C3.74802 28.6994 4.31096 29.2916 4.50234 29.5646C4.59296 29.6941 4.77261 29.9111 4.90109 30.0454C5.02956 30.1803 5.11272 30.3125 5.08607 30.3391C5.05941 30.3658 5.10153 30.3876 5.17989 30.3876C5.25772 30.3876 5.41339 30.5172 5.52533 30.6761C5.72524 30.9602 6.63363 31.8979 6.70879 31.8979C6.78769 31.8979 7.24028 32.3894 7.22056 32.4534C7.20883 32.4896 7.25947 32.52 7.33304 32.52C7.40607 32.52 7.46631 32.5824 7.46631 32.6586C7.46631 32.7343 7.50096 32.7754 7.54308 32.7492C7.58572 32.7231 7.71153 32.8207 7.82295 32.9662C7.93436 33.1117 8.0799 33.2306 8.146 33.2306C8.21157 33.2306 8.26595 33.2706 8.26595 33.3196C8.26595 33.3681 8.30859 33.4081 8.36084 33.4081C8.48398 33.4081 8.71001 33.6342 8.71001 33.7573C8.71001 33.8095 8.75532 33.8527 8.81076 33.8527C8.91685 33.8527 9.33159 34.2941 9.33159 34.4077C9.33212 34.4445 9.36944 34.4743 9.41582 34.4743C9.46166 34.4743 9.68183 34.6545 9.90466 34.8741C10.128 35.0943 10.3525 35.2739 10.4036 35.2739C10.4553 35.2739 10.4745 35.3113 10.4463 35.3566C10.4186 35.4019 10.4841 35.4669 10.5923 35.5016C10.8226 35.5746 11.0199 35.7537 11.0199 35.8897C11.0199 35.9419 11.0652 35.9851 11.1206 35.9851C11.1761 35.9851 11.3531 36.1248 11.5146 36.2959C11.6756 36.467 11.8408 36.6067 11.8814 36.6067C11.9219 36.6067 12.0301 36.7069 12.1218 36.829C12.214 36.951 12.343 37.0513 12.4096 37.0513C12.4763 37.0513 12.5307 37.0912 12.5307 37.1398C12.5307 37.1888 12.5904 37.2288 12.6639 37.2288C12.737 37.2288 12.7972 37.2704 12.7972 37.3215C12.7972 37.4617 13.2146 37.8509 13.3644 37.8509C13.4369 37.8509 13.5211 37.9303 13.5521 38.0284C13.583 38.126 13.7056 38.2299 13.8245 38.2598C13.9433 38.2896 14.0409 38.3701 14.0409 38.4378C14.0409 38.5061 14.1033 38.5615 14.1795 38.5615C14.2557 38.5615 14.293 38.6015 14.2632 38.6505C14.2328 38.699 14.2707 38.739 14.3464 38.739C14.4226 38.739 14.485 38.779 14.485 38.828C14.485 38.8771 14.5457 38.9171 14.6204 38.9171C14.6945 38.9171 14.8011 39.0168 14.8565 39.1388C14.9125 39.2614 15.0218 39.3611 15.1001 39.3611C15.178 39.3611 15.3614 39.5003 15.508 39.6703C15.654 39.8404 15.8235 39.9801 15.8843 39.9811C15.9456 39.9822 15.9957 40.0456 15.9957 40.1219C15.9957 40.1976 16.0299 40.2391 16.0714 40.2135C16.113 40.1874 16.2228 40.2237 16.3156 40.294C16.5651 40.4828 16.6584 40.4588 17.0113 40.1165C17.1872 39.9454 17.3732 39.8052 17.4239 39.8052C17.4751 39.8052 17.4942 39.7695 17.4671 39.7258C17.4191 39.6479 17.6643 39.4971 17.7949 39.5248C17.8312 39.5323 17.8567 39.5088 17.8509 39.472C17.8226 39.295 17.8701 39.1783 17.95 39.2279C17.9991 39.2583 18.0391 39.2439 18.0391 39.1959C18.0391 39.1484 17.989 39.0893 17.9282 39.0647C17.8669 39.0397 17.8568 39.0168 17.9058 39.013C17.9644 39.0082 17.9863 36.4974 17.9703 31.6207L17.9463 24.2353L18.1926 24.2944C18.328 24.327 18.5988 24.3947 18.7945 24.4453C18.9896 24.4954 19.2897 24.5535 19.4608 24.5743C19.7737 24.6127 19.633 24.5626 18.5279 24.2395C16.5992 23.6766 15.2409 22.2367 14.3528 19.8144C14.2184 19.4481 14.0777 19.068 14.0393 18.9705C14.0009 18.8729 13.9018 18.5531 13.8186 18.2599C13.543 17.2854 13.4657 17.1153 13.1522 16.788C12.1452 15.7368 11.0194 15.87 6.53341 17.5706C5.50188 17.9619 5.44804 17.9955 4.87976 18.6059C3.60728 19.9727 2.40197 19.961 2.40197 18.5819C2.40197 17.593 4.40265 16.7528 5.06848 17.4613C5.33822 17.7486 5.47469 17.7401 6.00512 17.4027C6.60591 17.0204 8.62365 16.0145 10.2224 15.2991C10.6984 15.0864 10.8221 14.9547 11.1585 14.306C11.7769 13.1129 12.455 12.4945 13.5014 12.1688C14.7334 11.7855 15.4429 11.9401 17.7741 13.1001C18.7182 13.5703 19.528 13.9429 19.5733 13.928C19.6181 13.9131 19.5413 13.8475 19.4022 13.7819C19.2636 13.7169 19.0898 13.6289 19.0162 13.5863C18.9432 13.5442 18.7198 13.4306 18.5199 13.3347C17.9074 13.0393 17.9458 13.5127 17.9714 6.55484C17.989 1.68027 17.9698 0.17856 17.8871 0.101795C17.7501 -0.0266792 15.3192 -0.0368078 15.2403 0.0900674ZM27.5904 7.33901L27.3239 7.56824L27.6123 7.37686C27.7711 7.27184 27.9012 7.16896 27.9012 7.14763C27.9012 7.081 27.8634 7.10445 27.5904 7.33901ZM31.8551 7.47069C31.7085 7.56451 31.6339 7.64181 31.6899 7.64181C31.7453 7.64234 31.885 7.56344 32.0007 7.46749C32.2645 7.24732 32.2011 7.24892 31.8551 7.47069ZM26.8793 7.87796C26.6117 8.11679 26.5919 8.14984 26.7983 8.01177C27.044 7.84758 27.3532 7.54852 27.2679 7.55705C27.2498 7.55864 27.0749 7.70311 26.8793 7.87796ZM29.8561 8.79754C29.598 8.99905 29.445 9.02037 29.3816 8.86418C29.3464 8.77675 29.3352 8.77782 29.3299 8.86685C29.3166 9.08488 29.5799 9.07688 29.9152 8.84925C30.1007 8.72291 30.2132 8.62056 30.1652 8.62162C30.1173 8.62269 29.9781 8.70159 29.8561 8.79754ZM25.3648 9.17497L25.0135 9.5524L25.3914 9.20162C25.7422 8.87484 25.8099 8.79754 25.7422 8.79754C25.7278 8.79754 25.5583 8.96707 25.3648 9.17497ZM23.8092 10.73L23.5032 11.0632L23.8364 10.7566C24.0198 10.5882 24.1696 10.4384 24.1696 10.4235C24.1696 10.3558 24.0944 10.4197 23.8092 10.73ZM21.6539 13.2472C21.5164 13.4386 21.4215 13.5953 21.4434 13.5953C21.5047 13.5953 21.9706 12.9658 21.9349 12.9306C21.9178 12.9135 21.7915 13.0559 21.6539 13.2472ZM21.1486 13.9504C21.0446 14.097 20.9791 14.2169 21.0036 14.2169C21.0276 14.2169 21.1331 14.097 21.2376 13.9504C21.3421 13.8038 21.4077 13.6838 21.3831 13.6838C21.3586 13.6838 21.2531 13.8038 21.1486 13.9504ZM31.2799 18.6197C31.1104 18.7391 31.0102 18.8372 31.0576 18.8367C31.1051 18.8367 31.2639 18.7381 31.4105 18.6176C31.7528 18.3372 31.6781 18.3382 31.2799 18.6197ZM30.1892 19.2434C29.8571 19.4236 29.8774 19.4988 30.2111 19.3261C30.3577 19.2498 30.4776 19.1693 30.4776 19.1459C30.4776 19.0888 30.468 19.092 30.1892 19.2434ZM29.106 19.7728C28.8842 19.9407 28.9663 19.9396 29.2904 19.7706C29.4306 19.6976 29.485 19.639 29.4115 19.64C29.3384 19.6416 29.2009 19.7013 29.106 19.7728ZM26.3462 20.614C26.2342 20.6625 26.2177 20.6908 26.3019 20.6908C26.375 20.6908 26.5152 20.6561 26.6127 20.614C26.7247 20.566 26.7412 20.5378 26.6575 20.5378C26.584 20.5378 26.4443 20.5724 26.3462 20.614ZM25.1985 20.9392C25.1478 21.0703 25.5183 21.7692 25.6383 21.7692C25.6628 21.7692 25.5737 21.605 25.441 21.404C25.2064 21.0495 25.2043 21.0346 25.3674 20.9152C25.5055 20.8144 25.5103 20.792 25.3957 20.792C25.3179 20.792 25.2294 20.8582 25.1985 20.9392ZM25.8131 22.1248C25.8893 22.2714 25.9709 22.3913 25.9954 22.3913C26.0199 22.3913 25.9778 22.2714 25.9021 22.1248C25.8264 21.9782 25.7443 21.8582 25.7198 21.8582C25.6953 21.8582 25.7374 21.9782 25.8131 22.1248ZM26.6074 25.7898L26.3462 26.0782L26.6351 25.8175C26.794 25.6741 26.9241 25.544 26.9241 25.5285C26.9241 25.4598 26.8505 25.5205 26.6074 25.7898ZM21.8496 27.7441C21.792 27.8544 21.5868 28.1337 21.3943 28.3656C21.0196 28.8172 21.0953 29.0491 21.5196 28.7516C21.6305 28.6743 21.6806 28.6103 21.6305 28.6103C21.5804 28.6103 21.4924 28.6578 21.4343 28.7159C21.2968 28.8534 21.1912 28.7457 21.316 28.5943C21.7872 28.0234 22.0985 27.5442 21.9989 27.5442C21.9749 27.5442 21.9072 27.6342 21.8496 27.7441Z" fill="#BAC3DA"/>
<path fill-rule="evenodd" clip-rule="evenodd" d="M19.3708 0.495237C19.3708 0.580531 19.4134 0.609851 19.4817 0.570936C19.5707 0.520826 19.5707 0.532553 19.4817 0.627976C19.3393 0.782039 19.3175 13.5954 19.4598 13.5954C19.5083 13.5954 19.5483 13.6551 19.5483 13.7286C19.5483 13.8118 19.6325 13.8619 19.7717 13.8619C19.8948 13.8619 20.0643 13.8966 20.1496 13.9387C20.4535 14.0901 20.881 14.2004 20.881 14.1269C20.881 14.0858 20.9333 13.9994 20.9967 13.9349C21.0601 13.8699 21.243 13.6252 21.4034 13.3907C21.5639 13.1561 21.8022 12.8544 21.9323 12.72C22.0629 12.5857 22.2878 12.3176 22.4328 12.1246C22.5773 11.9316 22.8172 11.6528 22.9659 11.5051C23.1141 11.3569 23.3402 11.0973 23.4681 10.9273C23.7512 10.5514 25.4597 8.85674 25.7678 8.64617C25.8899 8.56247 26.0936 8.39188 26.2194 8.26767C26.3457 8.14293 26.5957 7.94089 26.7743 7.81935C26.9529 7.6978 27.0995 7.56773 27.1 7.53148C27.1 7.4947 27.1603 7.46484 27.2338 7.46484C27.3069 7.46484 27.3671 7.43446 27.3671 7.39714C27.3671 7.36036 27.6289 7.15245 27.9492 6.93495L28.5314 6.54047L28.7457 6.80275C28.8635 6.94668 28.9616 7.15245 28.9632 7.2596C28.9648 7.36675 29.0064 7.4787 29.0554 7.50909C29.1039 7.53947 29.1439 7.67914 29.1439 7.81988C29.1439 7.96115 29.1812 8.09869 29.226 8.12694C29.2713 8.15466 29.3337 8.29433 29.3651 8.43666C29.4504 8.82688 29.6098 8.91804 29.8358 8.70694C29.9403 8.60992 30.0438 8.53102 30.0661 8.53102C30.0885 8.53102 30.62 8.18611 31.2469 7.76444C32.5791 6.86885 32.9224 6.66521 33.1005 6.66521C33.2492 6.66521 33.2833 6.26379 33.1421 6.17637C33.0936 6.14598 33.0536 6.04256 33.0536 5.94607C33.0536 5.84958 32.9933 5.74776 32.9203 5.72004C32.8467 5.69179 32.787 5.61023 32.787 5.53879C32.787 5.39166 32.577 5.15444 32.4474 5.15444C32.4 5.15444 32.3387 5.09473 32.3104 5.02116C32.2822 4.94813 32.198 4.88789 32.1233 4.88789C32.0487 4.88789 31.9874 4.85591 31.9874 4.81646C31.9874 4.70771 31.337 4.44383 31.0689 4.44383C30.9388 4.44383 30.8322 4.40385 30.8322 4.3548C30.8322 4.30576 30.5982 4.26631 30.3087 4.26631C29.9254 4.26631 29.7713 4.23059 29.734 4.13304C29.7042 4.05521 29.5709 3.99976 29.4136 3.99976C29.2654 3.99976 29.1439 3.95978 29.1439 3.91074C29.1439 3.86169 29.0485 3.82171 28.9312 3.82171C28.8144 3.82171 28.6956 3.76201 28.6678 3.68844C28.638 3.61061 28.5047 3.55517 28.3475 3.55517C28.1993 3.55517 28.0777 3.51519 28.0777 3.46668C28.0777 3.41763 28.0004 3.37765 27.9055 3.37765C27.8106 3.37765 27.7083 3.33767 27.6779 3.28862C27.648 3.24011 27.4855 3.20013 27.3175 3.20013C27.1048 3.20013 27.0115 3.15908 27.0115 3.06686C27.0115 2.9837 26.9278 2.93359 26.7898 2.93359C26.6677 2.93359 26.5675 2.8936 26.5675 2.84456C26.5675 2.79552 26.4273 2.75553 26.2567 2.75553C26.0392 2.75553 25.9454 2.71555 25.9454 2.62226C25.9454 2.54017 25.8622 2.48899 25.7289 2.48899C25.6095 2.48899 25.4869 2.44901 25.4571 2.4005C25.4267 2.35145 25.2843 2.31147 25.1404 2.31147C24.997 2.31147 24.8792 2.27149 24.8792 2.22245C24.8792 2.17393 24.7395 2.13395 24.5684 2.13395C24.3514 2.13395 24.2576 2.09344 24.2576 2.00068C24.2576 1.90739 24.1638 1.86741 23.9463 1.86741C23.7752 1.86741 23.6355 1.82743 23.6355 1.77838C23.6355 1.72934 23.5406 1.68936 23.4244 1.68936C23.3082 1.68936 23.1669 1.63392 23.1104 1.56568C23.0139 1.44947 22.8289 1.39349 22.1471 1.27568C21.9882 1.24849 21.8587 1.19039 21.8587 1.14667C21.8587 1.10296 21.7228 1.06777 21.557 1.06777C21.3709 1.06777 21.2361 1.0166 21.2046 0.934502C21.1705 0.846543 21.0313 0.80123 20.7952 0.80123C20.5979 0.80123 20.437 0.761249 20.437 0.712204C20.437 0.66316 20.3015 0.623179 20.1352 0.623179C19.9497 0.623179 19.8143 0.572535 19.7829 0.489906C19.7146 0.312388 19.3708 0.316652 19.3708 0.495237ZM32.7721 17.6607C32.7556 17.6975 32.5626 17.8665 32.3424 18.036C32.1228 18.2055 31.9229 18.3697 31.8984 18.4012C31.8738 18.4326 31.6329 18.5936 31.3631 18.7589C31.0934 18.9241 30.7933 19.1075 30.6968 19.1667C30.1994 19.4711 28.6567 20.17 28.4818 20.17C28.405 20.17 28.2728 20.2046 28.1875 20.2467C27.8709 20.405 27.4012 20.5506 27.0782 20.5911C26.8953 20.614 26.745 20.6684 26.745 20.7126C26.745 20.7563 26.5952 20.7926 26.4118 20.7931C26.229 20.7942 25.9294 20.8464 25.7471 20.9099C25.3947 21.033 25.2262 21.1471 25.3979 21.1471C25.4544 21.1471 25.5013 21.194 25.5013 21.2516C25.5013 21.3086 25.5573 21.4184 25.6255 21.4957C25.8078 21.701 26.253 22.5139 26.4806 23.0577C26.6837 23.5428 26.8591 23.9437 26.9358 24.1004C26.9774 24.1852 27.0115 24.3552 27.0115 24.4778C27.0115 24.6005 27.0515 24.7012 27.1006 24.7012C27.5894 24.7012 26.7279 26.1528 26.1255 26.3442C26.0269 26.3756 25.9454 26.4385 25.9454 26.4844C25.9454 26.5297 25.8889 26.567 25.8196 26.567C25.7503 26.567 25.6804 26.5969 25.6644 26.6337C25.6314 26.7072 24.9122 27.1891 24.8349 27.1891C24.8088 27.1891 24.6286 27.2888 24.4351 27.4109C24.2416 27.5335 24.0257 27.6332 23.9559 27.6332C23.8855 27.6332 23.8146 27.663 23.7986 27.6998C23.7592 27.7889 21.9317 28.7042 21.7995 28.7015C21.7425 28.7004 21.6822 28.7292 21.6663 28.766C21.6145 28.8817 21.0468 29.1466 20.962 29.0944C20.7899 28.9878 20.9045 28.7244 21.3283 28.2553C21.5708 27.9866 21.7697 27.7164 21.7697 27.6556C21.7697 27.5943 21.8001 27.5442 21.8368 27.5442C21.9088 27.5442 22.1087 27.0271 22.1844 26.6454C22.2607 26.261 21.5388 25.3233 21.1673 25.3233C21.1193 25.3233 21.0308 25.2631 20.97 25.1901C20.9093 25.1165 20.7467 25.0568 20.6091 25.0568C20.4711 25.0568 20.3341 25.0168 20.3037 24.9678C20.2733 24.9187 20.1112 24.8787 19.9428 24.8787C19.7749 24.8787 19.6373 24.8387 19.6373 24.7902C19.6373 24.7412 19.576 24.7012 19.5008 24.7012C19.3793 24.7012 19.3676 25.4235 19.39 31.3648C19.4038 35.0298 19.3852 38.0284 19.3484 38.0284C19.3121 38.0284 19.2817 38.0913 19.2817 38.1681C19.2817 38.2923 19.2967 38.2928 19.415 38.1745C19.4886 38.1009 19.5483 37.998 19.5483 37.9458C19.5483 37.8936 19.5995 37.8509 19.6624 37.8509C19.7247 37.8509 19.8335 37.771 19.9039 37.6729C19.9742 37.5753 20.0734 37.4953 20.124 37.4953C20.1752 37.4953 20.3245 37.3957 20.4561 37.273C20.5878 37.151 20.7376 37.0513 20.7883 37.0513C20.8394 37.0513 20.881 37.006 20.881 36.9505C20.881 36.8439 21.3229 36.4297 21.4365 36.4292C21.4733 36.4292 21.5031 36.3865 21.5031 36.3337C21.5031 36.2165 21.727 35.9851 21.8411 35.9851C21.8875 35.9851 22.0778 35.8449 22.2644 35.6738C22.4515 35.5027 22.6359 35.363 22.6754 35.363C22.7148 35.363 22.7468 35.3027 22.7468 35.2297C22.7468 35.1562 22.79 35.0964 22.8423 35.0964C22.9654 35.0964 23.1914 34.8704 23.1914 34.7473C23.1914 34.695 23.233 34.6524 23.2842 34.6524C23.4047 34.6524 23.813 34.2435 23.813 34.123C23.813 34.0718 23.8732 34.0303 23.9463 34.0303C24.0198 34.0303 24.0796 33.9903 24.0796 33.9412C24.0796 33.8927 24.1409 33.8527 24.216 33.8527C24.2907 33.8527 24.3749 33.7925 24.4031 33.7195C24.4309 33.6459 24.4879 33.5862 24.5295 33.5862C24.635 33.5862 25.5471 32.6677 25.5221 32.5867C25.5104 32.5499 25.5439 32.52 25.5962 32.52C25.6484 32.52 26.0077 32.2002 26.3953 31.8089C26.7823 31.4181 27.1395 31.0983 27.1885 31.0983C27.2381 31.0983 27.2781 31.0631 27.2781 31.0204C27.2781 30.9778 27.6982 30.5119 28.211 29.9857C28.7244 29.459 29.1439 28.9547 29.1439 28.8641C29.1439 28.7735 29.186 28.6994 29.2372 28.6994C29.3353 28.6994 30.2101 27.8587 30.2101 27.7643C30.2101 27.7339 30.2602 27.6535 30.3215 27.5858C30.5513 27.3288 30.6547 27.195 30.6547 27.1529C30.6547 27.1289 30.7544 27.0015 30.8764 26.8698C30.999 26.7376 31.0987 26.5942 31.0987 26.5505C31.0987 26.5068 31.1803 26.3831 31.2805 26.276C31.4868 26.0542 31.7208 25.6165 31.7208 25.4523C31.7208 25.3916 31.7806 25.3191 31.8541 25.2908C31.9272 25.2631 31.9874 25.1586 31.9874 25.0594C31.9874 24.9603 32.0274 24.8787 32.0759 24.8787C32.1249 24.8787 32.1649 24.7391 32.1649 24.5679C32.1649 24.3968 32.2049 24.2571 32.2539 24.2571C32.3024 24.2571 32.3424 24.0743 32.3424 23.8509C32.3424 23.6084 32.3963 23.3909 32.4757 23.3114C32.5669 23.2203 32.609 22.9964 32.609 22.6067C32.609 22.2852 32.6479 22.0358 32.698 22.0358C32.7513 22.0358 32.787 21.6781 32.787 21.1407C32.787 20.4642 32.8195 20.2137 32.9203 20.1129C33.1106 19.9221 33.1175 17.5935 32.9278 17.5935C32.8585 17.5935 32.7881 17.6234 32.7721 17.6607ZM18.9774 38.3456C18.8233 38.4997 18.8025 38.5615 18.9054 38.5615C18.9422 38.5615 19.0227 38.4816 19.0834 38.384C19.2167 38.1708 19.1693 38.1537 18.9774 38.3456ZM17.6521 39.5237C17.49 39.7029 17.4543 39.8473 17.5935 39.7615C17.6862 39.7039 17.8915 39.3612 17.8328 39.3612C17.8142 39.3612 17.7331 39.4342 17.6521 39.5237Z" fill="#BAC3DA"/>
<path fill-rule="evenodd" clip-rule="evenodd" d="M18.0087 0.238403C17.9761 0.270921 17.9495 3.14374 17.9495 6.62161C17.9495 13.6776 17.8898 13.0304 18.5716 13.3609C18.7427 13.4436 18.9426 13.5438 19.0157 13.5838C19.5184 13.8578 19.5488 13.8658 19.5488 13.7293C19.5488 13.6557 19.5088 13.5955 19.4603 13.5955C19.3179 13.5955 19.3398 0.782154 19.4821 0.628091C19.5711 0.532668 19.5711 0.52094 19.4821 0.57105C19.4149 0.609433 19.3712 0.581712 19.3712 0.500683C19.3712 0.409524 19.2939 0.373807 19.1271 0.387668C18.9927 0.398862 18.8296 0.356749 18.7651 0.293844C18.6425 0.174432 18.1115 0.135517 18.0087 0.238403ZM27.9374 6.94306C27.6485 7.14457 27.3985 7.34448 27.3825 7.38713C27.366 7.42977 27.2961 7.46496 27.2268 7.46496C27.1575 7.46496 27.1005 7.49481 27.1005 7.53159C27.1 7.56784 26.9534 7.69792 26.7748 7.81946C26.5962 7.94101 26.3462 8.14305 26.2198 8.26779C26.094 8.392 25.8904 8.56259 25.7683 8.64628C25.4602 8.85685 23.7516 10.5515 23.4686 10.9274C23.3406 11.0974 23.1146 11.357 22.9664 11.5052C22.8177 11.6529 22.5778 11.9317 22.4333 12.1247C22.2883 12.3177 22.0633 12.5858 21.9327 12.7201C21.8027 12.8545 21.5644 13.1562 21.4039 13.3908C21.2434 13.6253 21.0606 13.87 20.9972 13.9351C20.9337 13.9996 20.8815 14.0859 20.8815 14.127C20.8815 14.2005 20.4539 14.0902 20.1501 13.9388C20.0648 13.8967 19.9049 13.8642 19.7945 13.8663C19.6479 13.87 19.6895 13.9079 19.9486 14.0065C20.1442 14.0806 20.3734 14.1787 20.4582 14.224C20.7701 14.3898 20.9279 14.2992 21.3154 13.7309C21.5292 13.4169 21.7701 13.088 21.8512 13C21.9317 12.9121 22.2099 12.5799 22.4701 12.2628C24.1962 10.1533 26.4602 8.03003 28.0894 6.99211L28.5883 6.67439L28.7259 7.00277C28.801 7.18349 28.9242 7.49161 28.9988 7.68672C29.1204 8.00231 29.1358 8.01564 29.1401 7.80347C29.1422 7.6718 29.1044 7.53959 29.0559 7.5092C29.0068 7.47882 28.9668 7.37487 28.9668 7.27838C28.9668 7.10406 28.6315 6.5763 28.5206 6.5763C28.4892 6.5763 28.2269 6.74102 27.9374 6.94306ZM32.7502 6.78154C32.6563 6.83964 32.0246 7.25705 31.3455 7.70911C30.6669 8.16117 30.0922 8.53114 30.0687 8.53114C30.0447 8.53114 29.9408 8.61003 29.8363 8.70706C29.6103 8.91816 29.4509 8.827 29.3656 8.43678C29.3037 8.15637 29.1444 7.99218 29.1444 8.20968C29.1444 8.28272 29.1795 8.36428 29.2216 8.3904C29.2643 8.41706 29.3235 8.55939 29.3528 8.70706C29.4152 9.01731 29.5442 9.04077 29.8555 8.79768C29.9776 8.70172 30.1071 8.62283 30.1439 8.62176C30.1801 8.6207 30.4904 8.41972 30.8326 8.17557C31.1749 7.93141 31.4915 7.7315 31.5363 7.7315C31.5811 7.7315 31.6307 7.70112 31.6472 7.66433C31.6877 7.57158 32.7811 6.87216 33.054 6.76448C33.239 6.69091 33.2465 6.67652 33.0983 6.67599C33.0007 6.67599 32.844 6.72343 32.7502 6.78154ZM32.6094 17.6923C32.4874 17.792 32.3066 17.9407 32.208 18.0223C31.5768 18.5452 30.9083 18.9648 29.9632 19.4296C29.7052 19.5565 29.5138 19.6807 29.5383 19.7052C29.5794 19.7463 30.29 19.4163 30.6972 19.1668C30.7937 19.1076 31.0939 18.9242 31.3636 18.759C31.6333 18.5937 31.8743 18.4327 31.8988 18.4013C31.9233 18.3698 32.1233 18.2062 32.3429 18.0377C32.5631 17.8693 32.763 17.7061 32.7875 17.6757C32.8115 17.6454 32.8914 17.5974 32.965 17.5691C33.0833 17.5243 33.0833 17.518 32.965 17.5148C32.8914 17.5126 32.732 17.5921 32.6094 17.6923ZM29.1843 19.7985C29.138 19.8385 28.8053 19.967 28.4449 20.0837C28.0851 20.2005 27.8388 20.3124 27.8985 20.3321C27.9582 20.3524 28.0931 20.3284 28.1981 20.2794C28.3031 20.2303 28.5612 20.1386 28.7712 20.0757C29.1524 19.9611 29.5394 19.734 29.3624 19.7287C29.3107 19.7271 29.2307 19.7585 29.1843 19.7985ZM27.2785 20.4414C27.1565 20.483 26.8366 20.5752 26.5679 20.6472C26.0972 20.773 26.0914 20.7778 26.4123 20.7847C26.5957 20.789 26.7455 20.7522 26.7455 20.7032C26.7455 20.6541 26.8755 20.6131 27.0344 20.6109C27.1932 20.6093 27.423 20.5507 27.5451 20.4809C27.786 20.3433 27.6357 20.3209 27.2785 20.4414ZM25.3669 20.9153C25.2038 21.0347 25.207 21.0513 25.4596 21.426C25.603 21.6393 25.9101 22.1734 26.1415 22.6132C26.3728 23.053 26.5637 23.3627 26.5653 23.3009C26.5669 23.2391 26.5216 23.0989 26.465 22.9896C26.4085 22.8803 26.335 22.731 26.3019 22.658C26.1585 22.3435 25.7406 21.6249 25.626 21.4959C25.5577 21.4186 25.5018 21.3119 25.5018 21.2586C25.5018 21.2059 25.4516 21.1435 25.3909 21.1206C25.321 21.095 25.3461 21.0561 25.4575 21.0171C25.9464 20.846 26.0045 20.8044 25.763 20.798C25.6382 20.7948 25.4596 20.8476 25.3669 20.9153ZM26.6132 23.5909C26.6463 23.6885 26.7396 23.9683 26.8206 24.2125C26.9358 24.5601 26.9741 24.6112 26.9976 24.4465C27.0136 24.3314 26.9837 24.1933 26.931 24.14C26.8777 24.0872 26.8345 23.9795 26.8345 23.9012C26.8345 23.8223 26.771 23.6805 26.6937 23.5856C26.5551 23.4155 26.5541 23.4155 26.6132 23.5909ZM17.9697 31.6208C17.9857 36.4997 17.9639 39.0068 17.9052 39.0084C17.8562 39.01 17.8876 39.0532 17.9751 39.1038C18.1073 39.1806 18.2182 39.1123 18.6286 38.7018C18.9005 38.4294 19.1591 38.2295 19.2028 38.2562C19.2465 38.2834 19.2822 38.2434 19.2822 38.1672C19.2822 38.0909 19.3126 38.0286 19.3488 38.0286C19.3856 38.0286 19.4043 35.0299 19.3904 31.3649C19.368 25.4237 19.3798 24.7013 19.5013 24.7013C19.5765 24.7013 19.6378 24.7413 19.6378 24.7904C19.6378 24.8389 19.77 24.8788 19.931 24.8788C20.092 24.8788 20.2674 24.9226 20.3207 24.9753C20.3734 25.0286 20.5115 25.0564 20.6272 25.0372C20.7962 25.0095 20.7594 24.9801 20.4374 24.8868C20.2172 24.8229 19.9576 24.7376 19.8601 24.6976C19.762 24.6576 19.5621 24.6043 19.4155 24.5798C19.2689 24.5547 18.989 24.494 18.7939 24.4444C18.5983 24.3948 18.3274 24.3271 18.192 24.2946L17.9458 24.2354L17.9697 31.6208ZM27.0621 24.914C27.2327 25.5937 26.1127 26.436 22.8363 28.0928C21.1086 28.966 20.8554 29.014 21.3938 28.3658C21.8069 27.8684 22.2158 27.1562 22.211 26.9414C22.2073 26.7377 21.9556 27.1701 21.9509 27.3892C21.9493 27.4745 21.9077 27.5443 21.8592 27.5443C21.8101 27.5443 21.7701 27.5944 21.7701 27.6557C21.7701 27.7165 21.5713 27.9868 21.3287 28.2554C20.9049 28.7245 20.7903 28.9879 20.9625 29.0945C21.0473 29.1468 21.615 28.8818 21.6667 28.7661C21.6827 28.7293 21.7429 28.7006 21.8 28.7016C21.9322 28.7043 23.7596 27.789 23.7991 27.7C23.8151 27.6632 23.886 27.6333 23.9563 27.6333C24.0262 27.6333 24.2421 27.5336 24.4356 27.411C24.6291 27.2889 24.8093 27.1893 24.8354 27.1893C24.9127 27.1893 25.6318 26.7073 25.6649 26.6338C25.6809 26.597 25.7507 26.5671 25.82 26.5671C25.8893 26.5671 25.9458 26.5298 25.9458 26.4845C25.9458 26.4387 26.0274 26.3758 26.126 26.3443C26.73 26.1524 27.5893 24.7013 27.0994 24.7013C27.0482 24.7013 27.0323 24.7941 27.0621 24.914ZM20.9705 25.1902C21.0313 25.2632 21.1347 25.3234 21.1997 25.3234C21.3309 25.3234 21.9317 25.888 22.098 26.1673C22.1806 26.3059 22.2051 26.3139 22.2094 26.2041C22.2163 26.0047 21.6982 25.4535 21.301 25.2387C20.9012 25.0222 20.8218 25.0105 20.9705 25.1902Z" fill="#BAC3DA"/>
<path fill-rule="evenodd" clip-rule="evenodd" d="M37.9404 13.3634C37.9404 18.2092 37.9238 18.9134 37.8071 18.9582C37.6909 19.003 37.6738 19.6443 37.6738 23.9873V28.9659H40.5616H43.4493V28.4424C43.4493 28.0591 43.485 27.905 43.5826 27.8677C43.6977 27.8235 43.7159 27.349 43.7159 24.3488V20.8805H44.6488C45.2112 20.8805 45.5817 20.9157 45.5817 20.9695C45.5817 21.0276 47.2401 21.0586 50.3795 21.0586H55.1773V20.7856C55.1773 20.6353 55.237 20.4524 55.3105 20.3794C55.4262 20.2637 55.4438 19.4518 55.4438 14.1662V8.08637H48.5227C42.4535 8.08637 41.5963 8.07038 41.551 7.9531C41.5083 7.84115 41.2205 7.81982 39.7204 7.81982H37.9404V13.3634ZM92.9376 12.6123C92.9376 15.4158 92.9061 16.9804 92.8485 17.0156C92.791 17.0513 92.76 19.1789 92.76 23.1072V29.1434H94.6605C96.2683 29.1434 96.569 29.1642 96.6127 29.2767C96.6527 29.3817 96.835 29.4099 97.4662 29.4099H98.2685V28.6551C98.2685 28.2105 98.3052 27.8997 98.3575 27.8997C98.4145 27.8997 98.446 26.9076 98.446 25.101C98.446 22.6722 98.4636 22.3023 98.5792 22.3023C98.6528 22.3023 98.7125 22.362 98.7125 22.4355C98.7125 22.5086 98.7525 22.5688 98.8015 22.5688C98.8506 22.5688 98.8906 22.6488 98.8906 22.7463C98.8906 22.8455 98.9497 22.9244 99.0238 22.9244C99.0969 22.9244 99.1571 22.9841 99.1571 23.0576C99.1571 23.1307 99.1971 23.1909 99.2456 23.1909C99.2946 23.1909 99.3357 23.2607 99.3373 23.346C99.341 23.5385 99.5409 23.8125 99.6774 23.8125C99.7334 23.8125 99.7787 23.8727 99.7787 23.9458C99.7787 24.0193 99.8187 24.079 99.8677 24.079C99.9168 24.079 99.9567 24.159 99.9567 24.2571C99.9567 24.3557 100.016 24.4346 100.09 24.4346C100.163 24.4346 100.223 24.4943 100.223 24.5679C100.223 24.6409 100.263 24.7012 100.312 24.7012C100.361 24.7012 100.401 24.7662 100.401 24.8462C100.401 24.9261 100.54 25.1234 100.712 25.2844C100.883 25.4459 101.023 25.6602 101.023 25.7615C101.023 25.8654 101.081 25.9449 101.156 25.9449C101.229 25.9449 101.289 26.0051 101.289 26.0781C101.289 26.1517 101.329 26.2114 101.378 26.2114C101.427 26.2114 101.467 26.277 101.467 26.3564C101.467 26.4364 101.607 26.6336 101.778 26.7946C101.949 26.9561 102.089 27.171 102.089 27.2717C102.089 27.373 102.132 27.4556 102.184 27.4556C102.33 27.4556 102.533 27.6912 102.533 27.8608C102.533 27.9439 102.673 28.1438 102.844 28.3054C103.015 28.4664 103.155 28.6449 103.155 28.702C103.155 28.759 103.292 28.9424 103.459 29.1093L103.761 29.4126L106.768 29.3891L109.774 29.3657L109.802 29.0762C109.822 28.8768 109.787 28.7702 109.691 28.7334C109.615 28.7041 109.552 28.6044 109.552 28.5122C109.552 28.4195 109.512 28.3438 109.463 28.3438C109.414 28.3438 109.374 28.284 109.374 28.2105C109.374 28.1374 109.315 28.0772 109.241 28.0772C109.168 28.0772 109.108 28.0047 109.108 27.9162C109.108 27.8277 109.028 27.6699 108.93 27.5649C108.833 27.4599 108.753 27.3341 108.753 27.2856C108.753 27.2371 108.652 27.0969 108.53 26.9748C108.408 26.8527 108.308 26.6965 108.308 26.6277C108.308 26.559 108.208 26.4278 108.086 26.3361C107.964 26.2444 107.864 26.1192 107.864 26.0573C107.864 25.9955 107.824 25.9449 107.775 25.9449C107.727 25.9449 107.687 25.8708 107.687 25.7796C107.687 25.689 107.586 25.5397 107.464 25.4475C107.342 25.3558 107.242 25.1905 107.242 25.0796C107.242 24.9693 107.199 24.8787 107.147 24.8787C107.003 24.8787 106.798 24.6441 106.798 24.4789C106.798 24.3141 106.593 24.079 106.449 24.079C106.396 24.079 106.354 23.9937 106.354 23.8898C106.354 23.7858 106.214 23.5683 106.042 23.4073C105.871 23.2458 105.732 23.048 105.732 22.9681C105.732 22.8039 105.526 22.5688 105.383 22.5688C105.33 22.5688 105.288 22.4862 105.288 22.3849C105.288 22.1882 105.095 21.9467 104.938 21.9467C104.886 21.9467 104.843 21.847 104.843 21.7249C104.843 21.6028 104.803 21.5026 104.755 21.5026C104.706 21.5026 104.666 21.4424 104.666 21.3693C104.666 21.2958 104.626 21.2361 104.576 21.2361C104.528 21.2361 104.488 21.1748 104.488 21.1001C104.488 21.025 104.428 20.9407 104.355 20.913C104.203 20.8544 104.172 20.614 104.316 20.614C104.42 20.614 104.666 20.3954 104.666 20.3032C104.666 20.2291 104.902 19.9924 104.976 19.9924C105.069 19.9924 105.288 19.7466 105.288 19.6432C105.288 19.591 105.33 19.5478 105.383 19.5478C105.486 19.5478 105.732 19.3292 105.732 19.237C105.732 19.1629 105.968 18.9262 106.042 18.9262C106.135 18.9262 106.354 18.6804 106.354 18.577C106.354 18.5248 106.396 18.4816 106.449 18.4816C106.552 18.4816 106.798 18.263 106.798 18.1708C106.798 18.0967 107.035 17.86 107.109 17.86C107.201 17.86 107.42 17.6143 107.42 17.5108C107.42 17.4586 107.463 17.4154 107.515 17.4154C107.618 17.4154 107.864 17.1969 107.864 17.1046C107.864 17.0305 108.101 16.7938 108.175 16.7938C108.267 16.7938 108.486 16.5481 108.486 16.4447C108.486 16.3924 108.529 16.3492 108.581 16.3492C108.684 16.3492 108.93 16.1307 108.93 16.0385C108.93 15.9644 109.167 15.7277 109.241 15.7277C109.333 15.7277 109.552 15.4819 109.552 15.3785C109.552 15.3263 109.595 15.2831 109.647 15.2831C109.77 15.2831 109.996 15.057 109.996 14.9344C109.996 14.8817 110.036 14.839 110.085 14.839C110.134 14.839 110.174 14.759 110.174 14.6615C110.174 14.4866 110.115 14.4834 106.617 14.4834H103.06L102.671 14.8833C102.457 15.1034 102.239 15.2831 102.186 15.2831C102.132 15.2831 102.089 15.3215 102.089 15.3678C102.089 15.4782 101.217 16.3492 101.107 16.3492C101.061 16.3492 101.023 16.3924 101.023 16.4447C101.023 16.5481 100.804 16.7938 100.712 16.7938C100.637 16.7938 100.401 17.0305 100.401 17.1046C100.401 17.1969 100.155 17.4154 100.052 17.4154C99.9994 17.4154 99.9567 17.4586 99.9567 17.5108C99.9567 17.6143 99.7376 17.86 99.6454 17.86C99.5713 17.86 99.3346 18.0967 99.3346 18.1708C99.3346 18.263 99.0889 18.4816 98.9855 18.4816C98.9332 18.4816 98.8906 18.5248 98.8906 18.577C98.8906 18.7002 98.6645 18.9262 98.5414 18.9262C98.4748 18.9262 98.446 17.6606 98.446 14.75C98.446 11.0973 98.463 10.5743 98.5792 10.5743C98.6912 10.5743 98.7125 10.3866 98.7125 9.41909V8.26442H95.8253H92.9376V12.6123ZM111.951 14.2169V20.1699H118.348H124.745V23.2794V26.3894H119.592C116.216 26.3894 114.439 26.3585 114.439 26.3004C114.439 26.245 113.92 26.2114 113.06 26.2114H111.68L111.704 27.7888L111.729 29.3657L120.369 29.3881C126.027 29.403 129.01 29.4414 129.01 29.4995C129.01 29.5517 129.353 29.588 129.854 29.588H130.698V23.9458C130.698 20.244 130.729 18.3041 130.787 18.3041C130.836 18.3041 130.876 18.0674 130.876 17.771V17.2379H124.39H117.904V14.3502V11.463H124.168C128.285 11.463 130.431 11.4326 130.431 11.3739C130.431 11.3249 130.492 11.2849 130.565 11.2849C130.648 11.2849 130.698 11.2012 130.698 11.0631C130.698 10.9411 130.738 10.8408 130.787 10.8408C130.836 10.8408 130.876 10.7054 130.876 10.5391C130.876 10.3536 130.927 10.2182 131.009 10.1867C131.082 10.1585 131.142 10.0545 131.142 9.95538C131.142 9.85569 131.182 9.77466 131.231 9.77466C131.28 9.77466 131.32 9.63499 131.32 9.46387C131.32 9.29275 131.36 9.15255 131.409 9.15255C131.457 9.15255 131.497 9.01288 131.497 8.84176V8.53096H125.453C120.162 8.53096 119.402 8.51391 119.357 8.39769C119.313 8.28201 118.816 8.26442 115.629 8.26442H111.951V14.2169ZM133.275 15.4073C133.275 21.4605 133.259 22.2895 133.14 22.3348C133.023 22.3796 133.009 22.8295 133.029 25.8761L133.053 29.3657L134.319 29.3902C135.063 29.4046 135.585 29.4504 135.585 29.5016C135.585 29.5544 136.207 29.588 137.184 29.588H138.783V23.635V17.682H141.004H143.224L143.247 23.6126L143.27 29.5432L146.136 29.5667L149.001 29.5901V22.1258V14.6615H143.981H138.961V11.5962V8.53096H136.118H133.275V15.4073ZM150.955 10.973V13.4173H153.71H156.464V11.2945C156.464 9.44948 156.482 9.16481 156.603 9.11843C156.694 9.08324 156.733 8.97983 156.714 8.8199L156.686 8.57521L153.821 8.55176L150.955 8.5283V10.973ZM176.544 11.7764C176.544 14.4216 176.525 14.8518 176.41 14.8955C176.293 14.9408 176.277 15.8519 176.277 22.3561V29.7655H179.165H182.052V25.7321C182.052 22.2292 182.07 21.6924 182.186 21.6482C182.302 21.6034 182.319 20.7989 182.319 15.153V8.70848H179.431H176.544V11.7764ZM194.402 10.7518C194.402 12.0552 194.37 12.7957 194.313 12.7957C194.259 12.7957 194.224 13.1955 194.224 13.8171V14.839H189.116H184.007V19.7701C184.007 24.1164 183.991 24.7012 183.872 24.7012C183.755 24.7012 183.741 25.0173 183.761 27.2109L183.785 29.7213L191.759 29.7436L199.733 29.7666V26.7008C199.733 24.0348 199.75 23.635 199.866 23.635C199.984 23.635 199.999 22.7463 199.999 16.1717V8.70848H197.201H194.402V10.7518ZM49.4018 14.5725V17.86H46.5588H43.7159V14.5725V11.2849H46.5588H49.4018V14.5725ZM57.1316 18.577C57.1316 22.492 57.1135 23.1328 56.9983 23.248C56.8858 23.3604 56.865 23.8098 56.865 26.1735V28.9659H60.7299C63.2477 28.9659 64.5948 28.9968 64.5948 29.0549C64.5948 29.1125 65.9275 29.1434 68.4155 29.1434H72.2361V28.9216C72.2361 28.783 72.2862 28.6993 72.3694 28.6993C72.4435 28.6993 72.5027 28.6204 72.5027 28.5218C72.5027 28.4237 72.5426 28.3438 72.5912 28.3438C72.6402 28.3438 72.6802 28.2441 72.6802 28.122C72.6802 27.9999 72.7202 27.8997 72.7692 27.8997C72.8177 27.8997 72.8577 27.8 72.8577 27.6774C72.8577 27.5393 72.9083 27.4556 72.991 27.4556C73.0741 27.4556 73.1242 27.3714 73.1242 27.2333C73.1242 27.1112 73.1642 27.011 73.2133 27.011C73.2623 27.011 73.3023 26.8314 73.3023 26.6112V26.2114H67.9714H62.6405V24.9235V23.635H67.7491H72.8577V18.9262V14.2169H68.4208C65.5586 14.2169 63.9642 14.1854 63.9285 14.1284C63.8938 14.0714 62.6544 14.0394 60.5028 14.0394H57.1316V18.577ZM75.2566 20.0718C75.2566 25.2342 75.2406 25.9321 75.1212 25.9779C75.006 26.0222 74.9895 26.2567 75.0103 27.5644L75.0348 29.0991L82.4757 29.1221L89.9165 29.1445V28.8331C89.9165 28.6156 89.9571 28.5218 90.0498 28.5218C90.133 28.5218 90.1831 28.4376 90.1831 28.2995C90.1831 28.1774 90.2231 28.0772 90.2721 28.0772C90.3212 28.0772 90.3611 27.9818 90.3611 27.8645C90.3611 27.7478 90.4209 27.6289 90.4944 27.6012C90.5675 27.5729 90.6277 27.4684 90.6277 27.3693C90.6277 27.2701 90.6677 27.1891 90.7162 27.1891C90.7652 27.1891 90.8052 27.0489 90.8052 26.8778C90.8052 26.7066 90.8452 26.567 90.8942 26.567C90.9427 26.567 90.9827 26.487 90.9827 26.3894C90.9827 26.2135 90.9236 26.2114 85.8741 26.2114H80.7655V21.8454C80.7655 17.7918 80.7767 17.4714 80.9207 17.3616C81.0454 17.2672 81.9842 17.2432 85.63 17.2406C89.617 17.2384 90.1831 17.2214 90.1831 17.1046C90.1831 17.0311 90.2231 16.9714 90.2721 16.9714C90.3212 16.9714 90.3611 16.8312 90.3611 16.6606C90.3611 16.4431 90.4011 16.3492 90.4944 16.3492C90.577 16.3492 90.6277 16.2656 90.6277 16.1275C90.6277 16.0054 90.6677 15.9052 90.7162 15.9052C90.7652 15.9052 90.8052 15.765 90.8052 15.5944C90.8052 15.4233 90.8452 15.2831 90.8942 15.2831C90.9433 15.2831 90.9827 15.0464 90.9827 14.75V14.2169H83.1197H75.2566V20.0718ZM150.955 15.096C150.955 15.4003 150.915 15.5459 150.822 15.5821C150.705 15.6269 150.689 16.4905 150.689 22.6104V29.588H153.487H156.286V27.9887C156.286 26.9817 156.319 26.3894 156.375 26.3894C156.433 26.3894 156.464 24.3754 156.464 20.5255V14.6615H153.71H150.955V15.096ZM158.211 14.7207C158.179 14.7532 158.152 18.1116 158.152 22.1839V29.588H165.837H173.523V29.3657C173.523 29.2436 173.562 29.1434 173.61 29.1434C173.658 29.1434 173.722 29.0437 173.753 28.9216C173.784 28.7995 173.844 28.6993 173.888 28.6993C173.931 28.6993 173.967 28.5591 173.967 28.3885C173.967 28.2174 174.007 28.0772 174.056 28.0772C174.105 28.0772 174.145 27.9775 174.145 27.8554C174.145 27.7168 174.195 27.6331 174.278 27.6331C174.351 27.6331 174.411 27.5553 174.411 27.461C174.411 27.3661 174.451 27.2637 174.5 27.2333C174.549 27.2029 174.589 27.1006 174.589 27.0057C174.589 26.8378 174.486 26.8335 170.324 26.8335C166.593 26.8335 166.06 26.817 166.06 26.7002C166.06 26.5888 165.872 26.567 164.905 26.567H163.749V25.3233V24.079H167.348C169.687 24.079 170.946 24.1105 170.946 24.1681C170.946 24.224 171.509 24.2571 172.457 24.2571H173.967V19.5478C173.967 15.4217 173.951 14.839 173.834 14.839C173.76 14.839 173.701 14.799 173.701 14.75C173.701 14.6498 158.311 14.6204 158.211 14.7207ZM67.1718 18.8372V20.4364H64.9061H62.6405V18.8372V17.2379H64.9061H67.1718V18.8372ZM168.459 18.6149C168.459 19.2269 168.433 19.3703 168.325 19.3703C168.216 19.3703 168.192 19.5233 168.192 20.2141V21.0586H166.06H163.927V19.4593V17.86H166.193H168.459V18.6149ZM194.224 22.3465V26.8335H191.87H189.516V22.5784C189.516 18.8777 189.533 18.3163 189.649 18.2721C189.722 18.2438 189.782 18.1394 189.782 18.0402C189.782 17.8638 189.83 17.86 192.003 17.86H194.224V22.3465Z" fill="#BAC3DA"/>
</svg>
