<svg width="124" height="18" viewBox="0 0 124 18" fill="none" xmlns="http://www.w3.org/2000/svg">
<g clip-path="url(#clip0_1771_4317)">
<path d="M0.0189209 16.9441V0.770193H5.81842C7.17395 0.770193 8.33693 0.985846 9.30737 1.41715C10.2778 1.84846 11.0249 2.47231 11.5486 3.2887C12.0723 4.0897 12.3342 5.06783 12.3342 6.22311C12.3342 7.34759 12.0723 8.31802 11.5486 9.13442C11.0249 9.95082 10.2778 10.5747 9.30737 11.006C8.33693 11.4373 7.17395 11.6529 5.81842 11.6529H0.665877L1.19731 11.0984V16.9441H0.0189209ZM1.19731 11.1677L0.665877 10.5901H5.81842C7.55904 10.5901 8.87606 10.2127 9.76948 9.4579C10.6783 8.68771 11.1327 7.60945 11.1327 6.22311C11.1327 4.82137 10.6783 3.74311 9.76948 2.98833C8.87606 2.21815 7.55904 1.83305 5.81842 1.83305H0.665877L1.19731 1.25541V11.1677ZM20.7711 17.0365C19.5542 17.0365 18.476 16.7747 17.5364 16.2509C16.6121 15.7272 15.8805 15.0032 15.3413 14.079C14.8176 13.1548 14.5557 12.0996 14.5557 10.9135C14.5557 9.71206 14.8022 8.6569 15.2951 7.74808C15.8034 6.82386 16.4966 6.09988 17.3746 5.57616C18.2526 5.05243 19.2385 4.79057 20.3321 4.79057C21.4258 4.79057 22.4039 5.04473 23.2665 5.55305C24.1446 6.06137 24.83 6.77765 25.3229 7.70187C25.8313 8.61069 26.0854 9.66585 26.0854 10.8673C26.0854 10.9135 26.0777 10.9675 26.0623 11.0291C26.0623 11.0753 26.0623 11.1292 26.0623 11.1908H15.4106V10.2897H25.4385L24.9764 10.7287C24.9918 9.78908 24.7915 8.94957 24.3756 8.21019C23.9751 7.45541 23.4283 6.87007 22.7351 6.45417C22.0419 6.02287 21.241 5.80721 20.3321 5.80721C19.4387 5.80721 18.6377 6.02287 17.9292 6.45417C17.236 6.87007 16.6892 7.45541 16.2887 8.21019C15.8882 8.94957 15.6879 9.79678 15.6879 10.7518V10.9598C15.6879 11.9456 15.9036 12.8236 16.3349 13.5938C16.7816 14.3486 17.39 14.9416 18.1602 15.3729C18.9304 15.7888 19.8084 15.9968 20.7942 15.9968C21.5644 15.9968 22.2807 15.8581 22.9431 15.5809C23.6208 15.3036 24.1908 14.88 24.6529 14.3101L25.3229 15.0726C24.7992 15.7195 24.1369 16.2124 23.3359 16.5513C22.5503 16.8748 21.6954 17.0365 20.7711 17.0365ZM32.7094 17.0365C31.7082 17.0365 30.7685 16.8902 29.8905 16.5975C29.0279 16.3049 28.3579 15.9352 27.8803 15.4885L28.4118 14.5642C28.8739 14.9647 29.49 15.3113 30.2602 15.604C31.0304 15.8813 31.8622 16.0199 32.7556 16.0199C34.0187 16.0199 34.9276 15.8119 35.4821 15.396C36.0366 14.9801 36.3139 14.4333 36.3139 13.7555C36.3139 13.2626 36.1675 12.8775 35.8749 12.6003C35.5976 12.3076 35.2202 12.0842 34.7427 11.9302C34.2652 11.7762 33.7415 11.6529 33.1715 11.5605C32.6016 11.4527 32.0317 11.3372 31.4617 11.2139C30.8918 11.0907 30.368 10.9135 29.8905 10.6825C29.413 10.4514 29.0279 10.1357 28.7353 9.73516C28.458 9.31926 28.3194 8.77243 28.3194 8.09467C28.3194 7.47852 28.4888 6.92398 28.8277 6.43106C29.1666 5.93814 29.6749 5.54535 30.3526 5.25268C31.0304 4.9446 31.8776 4.79057 32.8943 4.79057C33.649 4.79057 34.4038 4.89839 35.1586 5.11405C35.9288 5.3297 36.5526 5.61467 37.0302 5.96895L36.4987 6.89318C35.9904 6.50808 35.4205 6.23082 34.7889 6.06138C34.1574 5.89193 33.5181 5.80721 32.8712 5.80721C31.7005 5.80721 30.8379 6.02287 30.2833 6.45417C29.7442 6.88547 29.4746 7.4246 29.4746 8.07156C29.4746 8.57988 29.6133 8.98808 29.8905 9.29616C30.1832 9.58883 30.5683 9.81988 31.0458 9.98933C31.5233 10.1434 32.0471 10.2743 32.617 10.3821C33.1869 10.4745 33.7569 10.5824 34.3268 10.7056C34.8967 10.8288 35.4205 11.006 35.898 11.237C36.3755 11.4527 36.7529 11.7608 37.0302 12.1613C37.3228 12.5463 37.4692 13.0701 37.4692 13.7324C37.4692 14.3948 37.2843 14.9724 36.9146 15.4654C36.5603 15.9583 36.0289 16.3434 35.3204 16.6206C34.6118 16.8979 33.7415 17.0365 32.7094 17.0365ZM43.7432 17.0365C42.742 17.0365 41.8024 16.8902 40.9244 16.5975C40.0617 16.3049 39.3917 15.9352 38.9142 15.4885L39.4456 14.5642C39.9077 14.9647 40.5239 15.3113 41.294 15.604C42.0642 15.8813 42.896 16.0199 43.7894 16.0199C45.0526 16.0199 45.9614 15.8119 46.5159 15.396C47.0704 14.9801 47.3477 14.4333 47.3477 13.7555C47.3477 13.2626 47.2014 12.8775 46.9087 12.6003C46.6314 12.3076 46.254 12.0842 45.7765 11.9302C45.299 11.7762 44.7753 11.6529 44.2053 11.5605C43.6354 11.4527 43.0655 11.3372 42.4955 11.2139C41.9256 11.0907 41.4019 10.9135 40.9244 10.6825C40.4468 10.4514 40.0617 10.1357 39.7691 9.73516C39.4918 9.31926 39.3532 8.77243 39.3532 8.09467C39.3532 7.47852 39.5226 6.92398 39.8615 6.43106C40.2004 5.93814 40.7087 5.54535 41.3865 5.25268C42.0642 4.9446 42.9114 4.79057 43.9281 4.79057C44.6829 4.79057 45.4376 4.89839 46.1924 5.11405C46.9626 5.3297 47.5865 5.61467 48.064 5.96895L47.5326 6.89318C47.0242 6.50808 46.4543 6.23082 45.8227 6.06138C45.1912 5.89193 44.5519 5.80721 43.905 5.80721C42.7343 5.80721 41.8717 6.02287 41.3171 6.45417C40.778 6.88547 40.5084 7.4246 40.5084 8.07156C40.5084 8.57988 40.6471 8.98808 40.9244 9.29616C41.217 9.58883 41.6021 9.81988 42.0796 9.98933C42.5571 10.1434 43.0809 10.2743 43.6508 10.3821C44.2207 10.4745 44.7907 10.5824 45.3606 10.7056C45.9306 10.8288 46.4543 11.006 46.9318 11.237C47.4093 11.4527 47.7867 11.7608 48.064 12.1613C48.3566 12.5463 48.503 13.0701 48.503 13.7324C48.503 14.3948 48.3181 14.9724 47.9484 15.4654C47.5942 15.9583 47.0627 16.3434 46.3542 16.6206C45.6456 16.8979 44.7753 17.0365 43.7432 17.0365ZM51.7271 16.9441V4.88299H52.8824V16.9441H51.7271ZM52.3048 1.94858C52.0429 1.94858 51.8195 1.85616 51.6347 1.67131C51.4498 1.48647 51.3574 1.27081 51.3574 1.02436C51.3574 0.762493 51.4498 0.539137 51.6347 0.354293C51.8195 0.169448 52.0429 0.0770264 52.3048 0.0770264C52.582 0.0770264 52.8054 0.169448 52.9748 0.354293C53.1597 0.523734 53.2521 0.739386 53.2521 1.00125C53.2521 1.26311 53.1597 1.48647 52.9748 1.67131C52.8054 1.85616 52.582 1.94858 52.3048 1.94858ZM72.7703 4.79057C73.7407 4.79057 74.5802 4.98311 75.2888 5.36821C76.0127 5.7379 76.575 6.30783 76.9755 7.07802C77.376 7.8328 77.5762 8.77243 77.5762 9.8969V16.9441H76.421V9.98933C76.421 8.6338 76.0898 7.60175 75.4274 6.89318C74.7651 6.1846 73.8408 5.83032 72.6547 5.83032C71.7459 5.83032 70.9603 6.02287 70.298 6.40796C69.6356 6.79305 69.1273 7.33218 68.773 8.02535C68.4187 8.71852 68.2416 9.55032 68.2416 10.5208V16.9441H67.0863V9.98933C67.0863 8.6338 66.7551 7.60175 66.0928 6.89318C65.4304 6.1846 64.5062 5.83032 63.3201 5.83032C62.4113 5.83032 61.6257 6.02287 60.9633 6.40796C60.301 6.79305 59.7926 7.33218 59.4383 8.02535C59.0841 8.71852 58.9069 9.55032 58.9069 10.5208V16.9441H57.7516V4.88299H58.8607V8.21019L58.699 7.84051C59.0533 6.90088 59.6463 6.1615 60.4781 5.62237C61.3099 5.06783 62.3111 4.79057 63.4818 4.79057C64.6833 4.79057 65.6923 5.09864 66.5087 5.71479C67.3405 6.31554 67.8642 7.21665 68.0798 8.41815L67.687 8.25641C68.0105 7.22436 68.619 6.39256 69.5124 5.761C70.4058 5.11405 71.4918 4.79057 72.7703 4.79057ZM82.3465 16.9441V4.88299H83.5018V16.9441H82.3465ZM82.9241 1.94858C82.6623 1.94858 82.4389 1.85616 82.2541 1.67131C82.0692 1.48647 81.9768 1.27081 81.9768 1.02436C81.9768 0.762493 82.0692 0.539137 82.2541 0.354293C82.4389 0.169448 82.6623 0.0770264 82.9241 0.0770264C83.2014 0.0770264 83.4248 0.169448 83.5942 0.354293C83.7791 0.523734 83.8715 0.739386 83.8715 1.00125C83.8715 1.26311 83.7791 1.48647 83.5942 1.67131C83.4248 1.85616 83.2014 1.94858 82.9241 1.94858ZM91.421 17.0365C90.4197 17.0365 89.4801 16.8902 88.6021 16.5975C87.7395 16.3049 87.0694 15.9352 86.5919 15.4885L87.1233 14.5642C87.5854 14.9647 88.2016 15.3113 88.9718 15.604C89.742 15.8813 90.5738 16.0199 91.4672 16.0199C92.7303 16.0199 93.6391 15.8119 94.1936 15.396C94.7482 14.9801 95.0254 14.4333 95.0254 13.7555C95.0254 13.2626 94.8791 12.8775 94.5864 12.6003C94.3092 12.3076 93.9318 12.0842 93.4543 11.9302C92.9767 11.7762 92.453 11.6529 91.8831 11.5605C91.3131 11.4527 90.7432 11.3372 90.1733 11.2139C89.6033 11.0907 89.0796 10.9135 88.6021 10.6825C88.1246 10.4514 87.7395 10.1357 87.4468 9.73516C87.1695 9.31926 87.0309 8.77243 87.0309 8.09467C87.0309 7.47852 87.2003 6.92398 87.5392 6.43106C87.8781 5.93814 88.3864 5.54535 89.0642 5.25268C89.742 4.9446 90.5892 4.79057 91.6058 4.79057C92.3606 4.79057 93.1154 4.89839 93.8702 5.11405C94.6404 5.3297 95.2642 5.61467 95.7417 5.96895L95.2103 6.89318C94.702 6.50808 94.132 6.23082 93.5005 6.06138C92.8689 5.89193 92.2297 5.80721 91.5827 5.80721C90.412 5.80721 89.5494 6.02287 88.9949 6.45417C88.4558 6.88547 88.1862 7.4246 88.1862 8.07156C88.1862 8.57988 88.3248 8.98808 88.6021 9.29616C88.8948 9.58883 89.2799 9.81988 89.7574 9.98933C90.2349 10.1434 90.7586 10.2743 91.3286 10.3821C91.8985 10.4745 92.4684 10.5824 93.0384 10.7056C93.6083 10.8288 94.132 11.006 94.6095 11.237C95.0871 11.4527 95.4644 11.7608 95.7417 12.1613C96.0344 12.5463 96.1807 13.0701 96.1807 13.7324C96.1807 14.3948 95.9959 14.9724 95.6262 15.4654C95.2719 15.9583 94.7405 16.3434 94.0319 16.6206C93.3233 16.8979 92.453 17.0365 91.421 17.0365ZM102.917 17.0365C101.854 17.0365 101.038 16.7439 100.468 16.1585C99.9132 15.5732 99.6359 14.7722 99.6359 13.7555V2.24895H100.791V13.64C100.791 14.4102 100.984 15.0032 101.369 15.4191C101.754 15.835 102.308 16.043 103.032 16.043C103.787 16.043 104.411 15.8196 104.904 15.3729L105.389 16.1816C105.081 16.4743 104.704 16.6899 104.257 16.8286C103.826 16.9672 103.379 17.0365 102.917 17.0365ZM97.4178 5.87653V4.88299H104.627V5.87653H97.4178ZM108.611 16.9441V4.88299H109.766V16.9441H108.611ZM109.189 1.94858C108.927 1.94858 108.703 1.85616 108.519 1.67131C108.334 1.48647 108.241 1.27081 108.241 1.02436C108.241 0.762493 108.334 0.539137 108.519 0.354293C108.703 0.169448 108.927 0.0770264 109.189 0.0770264C109.466 0.0770264 109.689 0.169448 109.859 0.354293C110.044 0.523734 110.136 0.739386 110.136 1.00125C110.136 1.26311 110.044 1.48647 109.859 1.67131C109.689 1.85616 109.466 1.94858 109.189 1.94858ZM119.419 17.0365C118.248 17.0365 117.2 16.7747 116.276 16.2509C115.367 15.7272 114.643 15.0032 114.104 14.079C113.581 13.1548 113.319 12.0996 113.319 10.9135C113.319 9.71206 113.581 8.6492 114.104 7.72498C114.643 6.80075 115.367 6.08448 116.276 5.57616C117.2 5.05243 118.248 4.79057 119.419 4.79057C120.389 4.79057 121.267 4.97541 122.053 5.3451C122.854 5.71479 123.501 6.26932 123.993 7.0087L123.139 7.63256C122.707 7.01641 122.168 6.562 121.521 6.26933C120.874 5.97665 120.173 5.83032 119.419 5.83032C118.479 5.83032 117.632 6.04597 116.877 6.47728C116.138 6.89318 115.552 7.48622 115.121 8.25641C114.705 9.01119 114.497 9.8969 114.497 10.9135C114.497 11.9302 114.705 12.8236 115.121 13.5938C115.552 14.3486 116.138 14.9416 116.877 15.3729C117.632 15.7888 118.479 15.9968 119.419 15.9968C120.173 15.9968 120.874 15.8504 121.521 15.5578C122.168 15.2651 122.707 14.8107 123.139 14.1945L123.993 14.8184C123.501 15.5578 122.854 16.1123 122.053 16.482C121.267 16.8517 120.389 17.0365 119.419 17.0365Z" fill="white"/>
</g>
<defs>
<clipPath id="clip0_1771_4317">
<rect width="124" height="17.0725" fill="white"/>
</clipPath>
</defs>
</svg>
