<svg width="208" height="64" viewBox="0 0 208 64" fill="none" xmlns="http://www.w3.org/2000/svg">
<g clip-path="url(#clip0_1568_1182)">
<path d="M50.5886 32.2193C50.5886 29.8483 49.9021 27.5145 48.5917 25.5283L53.4217 20.6993L49.8023 17.0745L44.9722 21.9034C40.9035 19.2469 35.6367 19.2469 31.5679 21.9034L26.7254 17.0745L23.0935 20.6993L27.9236 25.5283C25.2652 29.6 25.2652 34.851 27.9236 38.9227L23.0935 43.7393L26.7254 47.3641L31.5554 42.5352C35.6242 45.1917 40.891 45.1917 44.9598 42.5352L49.7898 47.3641L53.4217 43.7393L48.5917 38.9103C49.9021 36.9241 50.6011 34.6027 50.5886 32.2193ZM31.0687 32.2193C31.0687 29.2896 32.841 26.6455 35.5618 25.5531C38.2826 24.4607 41.4028 25.1186 43.4371 27.2289C45.4715 29.3393 46.0206 32.48 44.81 35.1489L40.0673 30.4069L36.4479 34.0317L41.1906 38.7738C38.969 39.7669 36.3855 39.5807 34.3387 38.2524C32.3043 36.9241 31.0687 34.6524 31.0687 32.2193Z" fill="#6BB9F7"/>
<path d="M76.7108 32.3683C76.7108 35.3352 75.2131 38.0041 72.5298 39.2331L73.9526 41.0828L71.0196 42.56L69.0601 39.9655H68.9977C64.1552 39.9655 61.2971 36.4524 61.2971 32.3559C61.2971 28.2593 64.1552 24.7462 68.9977 24.7462C73.8403 24.7462 76.7108 28.2717 76.7108 32.3683ZM69.0102 36.9862C71.7435 36.9862 73.2287 34.8635 73.2287 32.3559C73.2287 29.8483 71.7435 27.7255 69.0102 27.7255C66.252 27.7255 64.7668 29.8483 64.7917 32.3559C64.7668 34.8759 66.252 36.9862 69.0102 36.9862ZM82.1025 39.829C79.7187 39.829 78.4332 38.3517 78.4332 35.7821V29.6497H81.6282V35.0745C81.6282 36.4276 82.0776 37.1724 83.2757 37.1724C84.6111 37.1724 85.1853 36.3035 85.1853 34.9752V29.6497H88.3179V39.5559H85.1853V38.1407C84.6361 39.1959 83.6127 39.829 82.1025 39.829ZM94.8953 39.829C91.9249 39.829 90.215 37.5821 90.215 34.6028C90.215 31.6359 92.0497 29.3766 94.9327 29.3766C96.3805 29.3766 97.5037 30.0593 98.0404 31.0648V29.6497H101.173V39.5559H98.0404V38.1531C97.5162 39.1462 96.2806 39.829 94.8953 39.829ZM95.8064 37.2221C97.3665 37.2221 98.1777 36.0552 98.1777 34.6152C98.1777 33.2 97.3789 32.0207 95.8064 32.0207C94.3461 32.0207 93.435 33.1131 93.435 34.6152C93.435 36.1048 94.3461 37.2221 95.8064 37.2221ZM103.794 29.6497H106.952V31.0897C107.526 29.9848 108.662 29.389 110.159 29.389C112.568 29.389 113.779 30.7421 113.779 33.4359V39.5683H110.609V34.4662C110.609 32.8028 110.134 32.0455 108.861 32.0455C107.601 32.0455 106.952 32.8648 106.952 34.3917V39.5683H103.794V29.6497ZM121.504 37.1104C121.891 37.1104 122.303 37.0855 122.59 37.0483V39.5559C122.141 39.6428 121.392 39.7172 120.493 39.7172C119.008 39.7172 116.974 39.3821 116.974 36.08V32.1324H115.414V29.6497H116.974V26.7076H120.131V29.6497H122.378V32.1324H120.131V35.4221C120.131 36.8869 120.73 37.1104 121.504 37.1104ZM128.394 39.8662C125.486 39.8662 123.701 38.451 123.701 36.5766H126.833C126.833 37.2593 127.495 37.7435 128.456 37.7435C129.13 37.7435 129.604 37.3959 129.604 36.8124C129.604 36.4276 129.417 36.0924 128.88 35.9683L126.447 35.3476C124.799 34.9379 123.95 33.9076 123.95 32.4924C123.95 30.6428 125.573 29.3517 128.194 29.3517C131.102 29.3517 132.625 30.5683 132.625 32.4304H129.517C129.517 31.7352 129.005 31.3379 128.156 31.3379C127.482 31.3379 127.021 31.6731 127.021 32.1572C127.021 32.6041 127.333 32.9021 127.869 33.0386L130.216 33.6717C131.738 34.0814 132.724 35.0124 132.724 36.4276C132.737 38.4883 131.102 39.8662 128.394 39.8662ZM139.901 37.1104C140.288 37.1104 140.7 37.0855 140.987 37.0483V39.5559C140.537 39.6428 139.788 39.7172 138.89 39.7172C137.405 39.7172 135.37 39.3821 135.37 36.08V32.1324H133.81V29.6497H135.37V26.7076H138.528V29.6497H140.774V32.1324H138.528V35.4221C138.528 36.8869 139.115 37.1104 139.901 37.1104ZM146.765 39.829C143.795 39.829 142.085 37.5821 142.085 34.6028C142.085 31.6359 143.92 29.3766 146.803 29.3766C148.25 29.3766 149.374 30.0593 149.91 31.0648V29.6497H153.043V39.5559H149.91V38.1531C149.374 39.1462 148.138 39.829 146.765 39.829ZM147.664 37.2221C149.224 37.2221 150.035 36.0552 150.035 34.6152C150.035 33.2 149.236 32.0207 147.664 32.0207C146.204 32.0207 145.293 33.1131 145.293 34.6152C145.293 36.1048 146.204 37.2221 147.664 37.2221ZM155.664 29.6497H158.822V31.0897C159.258 30.0966 160.282 29.389 161.667 29.389C163.44 29.389 164.351 30.171 164.775 31.2138C165.312 30.1462 166.485 29.389 167.945 29.389C170.791 29.389 171.465 31.3379 171.465 33.4235V39.5683H168.295V33.9945C168.295 32.6166 167.783 32.0455 166.809 32.0455C165.823 32.0455 165.137 32.6041 165.137 34.4662V39.5683H161.967V33.9697C161.967 32.5917 161.468 32.0331 160.507 32.0331C159.496 32.0331 158.822 32.5917 158.822 34.4538V39.5559H155.664V29.6497ZM173.948 29.6497H177.106V31.0648C177.618 30.1214 178.853 29.3766 180.338 29.3766C183.059 29.3766 184.906 31.4745 184.906 34.6028C184.906 37.7062 182.997 39.829 180.251 39.829C178.791 39.829 177.593 39.0841 177.106 38.1655V43.6772H173.948V29.6497ZM179.34 37.2221C180.725 37.2221 181.686 36.1545 181.686 34.6152C181.686 33.0883 180.713 32.0207 179.34 32.0207C177.917 32.0207 176.956 33.0635 176.956 34.6152C176.956 36.1669 177.942 37.2221 179.34 37.2221Z" fill="white"/>
</g>
<defs>
<clipPath id="clip0_1568_1182">
<rect width="162" height="30.4138" fill="white" transform="translate(23 17)"/>
</clipPath>
</defs>
</svg>
